SplineFontDB: 3.0
FontName: Shabnam-Light
FullName: Shabnam Light
FamilyName: Shabnam Light
Weight: Light
Copyright: Copyright (c) 2003 by Bitstream, Inc. All Rights Reserved.\nDejaVu changes are in public domain\nChanges by Saber Rastikerdar are in public domain.\nNon-Arabic(Latin) glyphs and data in extended version are imported from Roboto font under the Apache License, Version 2.0.
Version: 5.0.1
ItalicAngle: 0
UnderlinePosition: -500
UnderlineWidth: 100
Ascent: 1638
Descent: 410
InvalidEm: 0
LayerCount: 2
Layer: 0 0 "Back" 1
Layer: 1 0 "Fore" 0
PreferredKerning: 4
XUID: [1021 502 1027637223 3895663]
UniqueID: 4024160
UseUniqueID: 1
FSType: 0
OS2Version: 1
OS2_WeightWidthSlopeOnly: 0
OS2_UseTypoMetrics: 1
CreationTime: 1431850356
ModificationTime: 1573911102
PfmFamily: 33
TTFWeight: 300
TTFWidth: 5
LineGap: 0
VLineGap: 0
Panose: 2 11 6 3 3 8 4 2 2 4
OS2TypoAscent: 1900
OS2TypoAOffset: 0
OS2TypoDescent: -900
OS2TypoDOffset: 0
OS2TypoLinegap: 0
OS2WinAscent: 1900
OS2WinAOffset: 0
OS2WinDescent: 900
OS2WinDOffset: 0
HheadAscent: 1900
HheadAOffset: 0
HheadDescent: -900
HheadDOffset: 0
OS2SubXSize: 1331
OS2SubYSize: 1433
OS2SubXOff: 0
OS2SubYOff: 286
OS2SupXSize: 1331
OS2SupYSize: 1433
OS2SupXOff: 0
OS2SupYOff: 983
OS2StrikeYSize: 102
OS2StrikeYPos: 530
OS2CapHeight: 1638
OS2XHeight: 1082
OS2Vendor: '    '
OS2CodePages: 00000041.20080000
OS2UnicodeRanges: 80002003.80000000.00000008.00000000
Lookup: 1 9 0 "Single Substitution 1" { "Single Substitution 1 subtable"  } []
Lookup: 1 9 0 "'fina' Terminal Forms in Arabic lookup 9" { "'fina' Terminal Forms in Arabic lookup 9 subtable"  } ['fina' ('DFLT' <'dflt' > 'arab' <'FAR ' 'KUR ' 'URD ' 'dflt' > ) ]
Lookup: 1 9 0 "'medi' Medial Forms in Arabic lookup 11" { "'medi' Medial Forms in Arabic lookup 11 subtable"  } ['medi' ('DFLT' <'dflt' > 'arab' <'FAR ' 'KUR ' 'URD ' 'dflt' > ) ]

StartChar: exclam
Encoding: 33 33 1
GlifName: exclam
Width: 632
VWidth: 2747
GlyphClass: 2
Flags: HW
LayerCount: 2
Fore
SplineSet
198 119 m 0
 198 183.7890625 251.469726562 238 316 238 c 0
 380.530273438 238 434 183.790039062 434 119 c 0
 434 54.318359375 380.680664062 1 316 1 c 0
 250.036132812 1 198 51.2783203125 198 119 c 0
236.418945312 1296 m 5
 399.59765625 1296 l 5
 385.391601562 432 l 1
 251.592773438 432 l 1
 236.418945312 1296 l 5
EndSplineSet
EndChar

StartChar: period
Encoding: 46 46 2
GlifName: period
Width: 632
VWidth: 2747
GlyphClass: 2
Flags: HW
LayerCount: 2
Fore
SplineSet
198 119 m 0
 198 183.7890625 251.469726562 238 316 238 c 0
 380.530273438 238 434 183.790039062 434 119 c 0
 434 54.318359375 380.680664062 1 316 1 c 4
 250.036132812 1 198 51.2783203125 198 119 c 0
EndSplineSet
EndChar

StartChar: colon
Encoding: 58 58 3
GlifName: colon
Width: 632
VWidth: 2747
GlyphClass: 2
Flags: HW
LayerCount: 2
Fore
SplineSet
198 739 m 0
 198 803.7890625 251.469726562 858 316 858 c 0
 380.530273438 858 434 803.790039062 434 739 c 0
 434 674.318359375 380.680664062 621 316 621 c 0
 250.036132812 621 198 671.278320312 198 739 c 0
198 119 m 0
 198 183.7890625 251.469726562 238 316 238 c 0
 380.530273438 238 434 183.790039062 434 119 c 0
 434 54.318359375 380.680664062 1 316 1 c 0
 250.036132812 1 198 51.2783203125 198 119 c 0
EndSplineSet
EndChar

StartChar: uni060C
Encoding: 1548 1548 5
GlifName: afii57388
Width: 669
VWidth: 2755
GlyphClass: 2
Flags: HW
LayerCount: 2
Fore
SplineSet
479.995117188 557.158203125 m 1
 386.731445312 469.864257812 326 387.909179688 326 262 c 2
 326 247 l 1
 341 247 l 2
 434.83203125 247 461 209.547851562 461 128 c 0
 461 47.482421875 420.63671875 1 341 1 c 4
 238.108398438 1 198 59.134765625 198 160 c 0
 198 343.475585938 290.834960938 487.737304688 428.926757812 597.874023438 c 1
 479.995117188 557.158203125 l 1
EndSplineSet
EndChar

StartChar: uni0615
Encoding: 1557 1557 6
GlifName: uni0615
Width: -29
VWidth: 2712
GlyphClass: 4
Flags: HW
AnchorPoint: "Anchor-10" 658.199 1622.46 mark 0
AnchorPoint: "Anchor-9" 658.199 1622.46 mark 0
AnchorPoint: "Anchor-1" 672.366 2445.86 basemark 0
AnchorPoint: "Anchor-1" 658.199 1622.46 mark 0
LayerCount: 2
Fore
SplineSet
922.5 1918 m 0
 922.5 1972.54218546 892.404707701 2002.5 837 2002.5 c 0
 759.706067151 2002.5 656.515248558 1927.68538571 530.922115164 1791.07600851 c 2
 519.360241841 1778.5 l 1
 536.443359375 1778.5 l 1
 678 1778.5 l 2
 787.107436735 1778.5 922.5 1812.62049131 922.5 1918 c 0
542.620193711 1881.72981659 m 2
 650.977495014 2004.99038663 751.932604399 2068.5 841 2068.5 c 0
 936.507265731 2068.5 981.5 2023.58060437 981.5 1927 c 0
 981.5 1791.42809603 881.493833021 1721.5 668 1721.5 c 2
 364.5 1721.5 l 1
 364.5 1778.5 l 1
 465 1778.5 l 1
 472.5 1778.5 l 1
 472.5 1786 l 1
 472.5 2310.37567432 l 1
 530.478719277 2309.6232882 l 1
 529.487325294 1886.69922164 l 1
 529.440532066 1866.73744793 l 1
 542.620193711 1881.72981659 l 2
EndSplineSet
EndChar

StartChar: uni061B
Encoding: 1563 1563 7
GlifName: uni061B_
Width: 669
VWidth: 2755
GlyphClass: 2
Flags: HW
LayerCount: 2
Fore
SplineSet
226 119 m 0
 226 183.7890625 279.469726562 238 344 238 c 0
 408.530273438 238 462 183.790039062 462 119 c 0
 462 54.318359375 408.680664062 1 344 1 c 0
 278.036132812 1 226 51.2783203125 226 119 c 0
479.963867188 989.182617188 m 1
 386.504882812 902.076171875 326 820.142578125 326 694 c 2
 326 679 l 1
 341 679 l 2
 434.508789062 679 461 641.108398438 461 560 c 0
 461 479.482421875 420.63671875 433 341 433 c 0
 238.108398438 433 198 491.134765625 198 592 c 0
 198 775.475585938 290.834960938 919.737304688 428.926757812 1029.87402344 c 1
 479.963867188 989.182617188 l 1
EndSplineSet
EndChar

StartChar: uni061F
Encoding: 1567 1567 8
GlifName: uni061F_
Width: 924
VWidth: 2762
GlyphClass: 2
Flags: HW
LayerCount: 2
Fore
SplineSet
407 119 m 0
 407 183.7890625 460.469726562 238 525 238 c 0
 589.530273438 238 643 183.790039062 643 119 c 0
 643 54.318359375 589.680664062 1 525 1 c 0
 459.036132812 1 407 51.2783203125 407 119 c 0
114 966 m 0
 114 1170.76660156 280.005859375 1306 469 1306 c 0
 707.328125 1306 805.77734375 1186.88476562 810.823242188 941 c 1
 684.690429688 941 l 1
 679.782226562 1075.06542969 621.248046875 1156 480 1156 c 0
 353.814453125 1156 265 1083.90820312 265 957 c 0
 265 757.680664062 590.383789062 776.821289062 602.6796875 432 c 5
 447.701171875 432 l 1
 435.293945312 761.21484375 114 675.631835938 114 966 c 0
EndSplineSet
EndChar

StartChar: uni0621
Encoding: 1569 1569 9
GlifName: uni0621
Width: 807
VWidth: 2551
GlyphClass: 2
Flags: HW
AnchorPoint: "Anchor-7" 437 -69 basechar 0
AnchorPoint: "Anchor-10" 394 1055 basechar 0
LayerCount: 2
Fore
SplineSet
445 741 m 0
 501.296875 741 559.147460938 728.237304688 600 711.193359375 c 1
 600 594.403320312 l 1
 551.719726562 608.204101562 500.309570312 615 454 615 c 0
 339.1796875 615 260 557.762695312 260 459 c 0
 260 321.178710938 405.951171875 288 498 288 c 0
 545.751953125 288 600.578125 303.100585938 657.732421875 330.6171875 c 1
 694.642578125 207.048828125 l 1
 176.159179688 9.1689453125 l 1
 128.908203125 120.489257812 l 1
 323.303710938 193.96875 l 1
 364.947265625 209.709960938 l 1
 322.268554688 222.379882812 l 2
 198.638671875 259.08203125 129 328.970703125 129 469 c 0
 129 626.397460938 249.15625 741 445 741 c 0
EndSplineSet
EndChar

StartChar: uni0627
Encoding: 1575 1575 15
GlifName: uni0627
Width: 459
VWidth: 2551
GlyphClass: 2
Flags: HW
AnchorPoint: "Anchor-10" 225 1448 basechar 0
AnchorPoint: "Anchor-7" 228 -226 basechar 0
LayerCount: 2
Fore
SplineSet
165 1304 m 1
 301 1304 l 1
 301 1 l 1
 165 1 l 1
 165 1304 l 1
EndSplineSet
Substitution2: "'fina' Terminal Forms in Arabic lookup 9 subtable" uniFE8E
EndChar

StartChar: uni062D
Encoding: 1581 1581 21
GlifName: uni062D_
Width: 1314
VWidth: 2551
GlyphClass: 2
Flags: HW
AnchorPoint: "Anchor-10" 657.5 1017.5 basechar 0
AnchorPoint: "Anchor-7" 743.334 -890.653 basechar 0
LayerCount: 2
Fore
SplineSet
934.259765625 460.125976562 m 1
 802.193359375 533.162109375 l 2
 714.87109375 580.885742188 634.33984375 607 554 607 c 0
 461.900390625 607 394.866210938 573.684570312 314.673828125 510.749023438 c 2
 254.717773438 462.614257812 l 1
 159.40234375 569.534179688 l 1
 208.659179688 611.5234375 l 2
 327.43359375 711.4921875 426.546875 760 548 760 c 0
 638.9609375 760 731.276367188 732.984375 826.505859375 678.005859375 c 2
 1015.53710938 568.98828125 l 2
 1080.06835938 531.977539062 1147.35351562 507.986328125 1198 495.9921875 c 1
 1198 339.118164062 l 1
 823.1484375 288.305664062 257 177.930664062 257 -207 c 0
 257 -444.549804688 446.70703125 -549 802 -549 c 2
 1199 -549 l 1
 1199 -695 l 1
 790 -695 l 2
 379.599609375 -695 115 -543.635742188 115 -210 c 0
 115 127.548828125 383.124023438 341.147460938 929.465820312 432.204101562 c 2
 971.946289062 439.284179688 l 1
 934.259765625 460.125976562 l 1
EndSplineSet
Substitution2: "'fina' Terminal Forms in Arabic lookup 9 subtable" uniFEA2
Substitution2: "'medi' Medial Forms in Arabic lookup 11 subtable" uniFEA4
Substitution2: "'init' Initial Forms in Arabic lookup 13 subtable" uniFEA3
EndChar

StartChar: uni062F
Encoding: 1583 1583 23
GlifName: uni062F_
Width: 1004
VWidth: 2551
GlyphClass: 2
Flags: HW
AnchorPoint: "Anchor-10" 448 1151 basechar 0
AnchorPoint: "Anchor-7" 424 -240 basechar 0
LayerCount: 2
Fore
SplineSet
464 0 m 2
 115 0 l 1
 115 150 l 1
 465 150 l 2
 653.11328125 150 744 197.033203125 744 285 c 0
 744 342.63671875 705.048828125 410.004882812 643.333984375 480.825195312 c 2
 371.962890625 793.87109375 l 1
 472.784179688 907.190429688 l 1
 759.587890625 572.265625 l 2
 845.02734375 472.094726562 889 368.126953125 889 279 c 0
 889 124.331054688 760.359375 0 464 0 c 2
EndSplineSet
Substitution2: "'fina' Terminal Forms in Arabic lookup 9 subtable" uniFEAA
EndChar

StartChar: uni0631
Encoding: 1585 1585 25
GlifName: uni0631
Width: 756
VWidth: 2551
GlyphClass: 2
Flags: HW
AnchorPoint: "Anchor-7" 297 -634 basechar 0
AnchorPoint: "Anchor-10" 511 938 basechar 0
LayerCount: 2
Fore
SplineSet
84 -324 m 2
 349.224609375 -324 497 -189.24609375 497 56 c 2
 497 575.0859375 l 1
 641 575.913085938 l 1
 641 56 l 2
 641 -276.141601562 452.302734375 -465.053710938 85.7919921875 -468.000976562 c 2
 29 -468.790039062 l 1
 29 -324 l 1
 84 -324 l 2
EndSplineSet
PairPos2: "'kern' Horizontal Kerning lookup 15-1" uniFEE7 dx=-178 dy=0 dh=-178 dv=0 dx=0 dy=0 dh=0 dv=0
PairPos2: "'kern' Horizontal Kerning lookup 15-2" uni0698 dx=-40 dy=0 dh=-40 dv=0 dx=0 dy=0 dh=0 dv=0
PairPos2: "'kern' Horizontal Kerning lookup 15-2" uni0648 dx=-30 dy=0 dh=-30 dv=0 dx=0 dy=0 dh=0 dv=0
PairPos2: "'kern' Horizontal Kerning lookup 15-2" uni0624 dx=-30 dy=0 dh=-30 dv=0 dx=0 dy=0 dh=0 dv=0
PairPos2: "'kern' Horizontal Kerning lookup 15-2" uni0632 dx=-30 dy=0 dh=-30 dv=0 dx=0 dy=0 dh=0 dv=0
PairPos2: "'kern' Horizontal Kerning lookup 15-2" uni0631 dx=-30 dy=0 dh=-30 dv=0 dx=0 dy=0 dh=0 dv=0
PairPos2: "'kern' Horizontal Kerning lookup 15-2" uniFB90 dx=-180 dy=0 dh=-180 dv=0 dx=0 dy=0 dh=0 dv=0
PairPos2: "'kern' Horizontal Kerning lookup 15-2" uniFB8E dx=-180 dy=0 dh=-180 dv=0 dx=0 dy=0 dh=0 dv=0
PairPos2: "'kern' Horizontal Kerning lookup 15-2" uni06A9 dx=-180 dy=0 dh=-180 dv=0 dx=0 dy=0 dh=0 dv=0
PairPos2: "'kern' Horizontal Kerning lookup 15-2" uniFEEB dx=-178 dy=0 dh=-178 dv=0 dx=0 dy=0 dh=0 dv=0
PairPos2: "'kern' Horizontal Kerning lookup 15-2" uni0647 dx=-178 dy=0 dh=-178 dv=0 dx=0 dy=0 dh=0 dv=0
PairPos2: "'kern' Horizontal Kerning lookup 15-2" uniFEE3 dx=-178 dy=0 dh=-178 dv=0 dx=0 dy=0 dh=0 dv=0
PairPos2: "'kern' Horizontal Kerning lookup 15-2" uni0645 dx=-178 dy=0 dh=-178 dv=0 dx=0 dy=0 dh=0 dv=0
PairPos2: "'kern' Horizontal Kerning lookup 15-2" uniFEFB dx=-143 dy=0 dh=-143 dv=0 dx=0 dy=0 dh=0 dv=0
PairPos2: "'kern' Horizontal Kerning lookup 15-2" uniFEDF dx=-143 dy=0 dh=-143 dv=0 dx=0 dy=0 dh=0 dv=0
PairPos2: "'kern' Horizontal Kerning lookup 15-2" uni0644 dx=-60 dy=0 dh=-60 dv=0 dx=0 dy=0 dh=0 dv=0
PairPos2: "'kern' Horizontal Kerning lookup 15-2" uniFEDB dx=-180 dy=0 dh=-180 dv=0 dx=0 dy=0 dh=0 dv=0
PairPos2: "'kern' Horizontal Kerning lookup 15-2" uni0643 dx=-143 dy=0 dh=-143 dv=0 dx=0 dy=0 dh=0 dv=0
PairPos2: "'kern' Horizontal Kerning lookup 15-2" uniFED7 dx=-178 dy=0 dh=-178 dv=0 dx=0 dy=0 dh=0 dv=0
PairPos2: "'kern' Horizontal Kerning lookup 15-2" uniFED3 dx=-178 dy=0 dh=-178 dv=0 dx=0 dy=0 dh=0 dv=0
PairPos2: "'kern' Horizontal Kerning lookup 15-2" uni0641 dx=-178 dy=0 dh=-178 dv=0 dx=0 dy=0 dh=0 dv=0
PairPos2: "'kern' Horizontal Kerning lookup 15-2" uniFECF dx=-178 dy=0 dh=-178 dv=0 dx=0 dy=0 dh=0 dv=0
PairPos2: "'kern' Horizontal Kerning lookup 15-2" uniFECB dx=-178 dy=0 dh=-178 dv=0 dx=0 dy=0 dh=0 dv=0
PairPos2: "'kern' Horizontal Kerning lookup 15-2" uniFEC7 dx=-178 dy=0 dh=-178 dv=0 dx=0 dy=0 dh=0 dv=0
PairPos2: "'kern' Horizontal Kerning lookup 15-2" uni0638 dx=-178 dy=0 dh=-178 dv=0 dx=0 dy=0 dh=0 dv=0
PairPos2: "'kern' Horizontal Kerning lookup 15-2" uniFEC3 dx=-178 dy=0 dh=-178 dv=0 dx=0 dy=0 dh=0 dv=0
PairPos2: "'kern' Horizontal Kerning lookup 15-2" uni0637 dx=-178 dy=0 dh=-178 dv=0 dx=0 dy=0 dh=0 dv=0
PairPos2: "'kern' Horizontal Kerning lookup 15-2" uniFEBF dx=-178 dy=0 dh=-178 dv=0 dx=0 dy=0 dh=0 dv=0
PairPos2: "'kern' Horizontal Kerning lookup 15-2" uni0636 dx=-178 dy=0 dh=-178 dv=0 dx=0 dy=0 dh=0 dv=0
PairPos2: "'kern' Horizontal Kerning lookup 15-2" uniFEBB dx=-178 dy=0 dh=-178 dv=0 dx=0 dy=0 dh=0 dv=0
PairPos2: "'kern' Horizontal Kerning lookup 15-2" uni0635 dx=-178 dy=0 dh=-178 dv=0 dx=0 dy=0 dh=0 dv=0
PairPos2: "'kern' Horizontal Kerning lookup 15-2" uniFEB7 dx=-178 dy=0 dh=-178 dv=0 dx=0 dy=0 dh=0 dv=0
PairPos2: "'kern' Horizontal Kerning lookup 15-2" uni0634 dx=-178 dy=0 dh=-178 dv=0 dx=0 dy=0 dh=0 dv=0
PairPos2: "'kern' Horizontal Kerning lookup 15-2" uniFEB3 dx=-178 dy=0 dh=-178 dv=0 dx=0 dy=0 dh=0 dv=0
PairPos2: "'kern' Horizontal Kerning lookup 15-2" uni0633 dx=-178 dy=0 dh=-178 dv=0 dx=0 dy=0 dh=0 dv=0
PairPos2: "'kern' Horizontal Kerning lookup 15-2" uni0630 dx=-178 dy=0 dh=-178 dv=0 dx=0 dy=0 dh=0 dv=0
PairPos2: "'kern' Horizontal Kerning lookup 15-2" uni062F dx=-178 dy=0 dh=-178 dv=0 dx=0 dy=0 dh=0 dv=0
PairPos2: "'kern' Horizontal Kerning lookup 15-2" uniFEA7 dx=-178 dy=0 dh=-178 dv=0 dx=0 dy=0 dh=0 dv=0
PairPos2: "'kern' Horizontal Kerning lookup 15-2" uniFEA3 dx=-178 dy=0 dh=-178 dv=0 dx=0 dy=0 dh=0 dv=0
PairPos2: "'kern' Horizontal Kerning lookup 15-2" uniFE9F dx=-178 dy=0 dh=-178 dv=0 dx=0 dy=0 dh=0 dv=0
PairPos2: "'kern' Horizontal Kerning lookup 15-2" uniFE9B dx=-178 dy=0 dh=-178 dv=0 dx=0 dy=0 dh=0 dv=0
PairPos2: "'kern' Horizontal Kerning lookup 15-2" uni062B dx=-178 dy=0 dh=-178 dv=0 dx=0 dy=0 dh=0 dv=0
PairPos2: "'kern' Horizontal Kerning lookup 15-2" uniFE97 dx=-178 dy=0 dh=-178 dv=0 dx=0 dy=0 dh=0 dv=0
PairPos2: "'kern' Horizontal Kerning lookup 15-2" uni062A dx=-178 dy=0 dh=-178 dv=0 dx=0 dy=0 dh=0 dv=0
PairPos2: "'kern' Horizontal Kerning lookup 15-2" uni0629 dx=-178 dy=0 dh=-178 dv=0 dx=0 dy=0 dh=0 dv=0
PairPos2: "'kern' Horizontal Kerning lookup 15-2" uni0628 dx=-178 dy=0 dh=-178 dv=0 dx=0 dy=0 dh=0 dv=0
PairPos2: "'kern' Horizontal Kerning lookup 15-2" uni0627 dx=-163 dy=0 dh=-163 dv=0 dx=0 dy=0 dh=0 dv=0
PairPos2: "'kern' Horizontal Kerning lookup 15-2" uni0623 dx=-163 dy=0 dh=-163 dv=0 dx=0 dy=0 dh=0 dv=0
PairPos2: "'kern' Horizontal Kerning lookup 15-2" uni0622 dx=-163 dy=0 dh=-163 dv=0 dx=0 dy=0 dh=0 dv=0
PairPos2: "'kern' Horizontal Kerning lookup 15-2" uni0621 dx=-178 dy=0 dh=-178 dv=0 dx=0 dy=0 dh=0 dv=0
PairPos2: "'kern' Horizontal Kerning lookup 15-2" uniFB94 dx=-180 dy=0 dh=-180 dv=0 dx=0 dy=0 dh=0 dv=0
PairPos2: "'kern' Horizontal Kerning lookup 15-2" uniFB92 dx=-180 dy=0 dh=-180 dv=0 dx=0 dy=0 dh=0 dv=0
PairPos2: "'kern' Horizontal Kerning lookup 15-2" uni06AF dx=-180 dy=0 dh=-180 dv=0 dx=0 dy=0 dh=0 dv=0
PairPos2: "'kern' Horizontal Kerning lookup 15-2" uni067E dx=-178 dy=0 dh=-178 dv=0 dx=0 dy=0 dh=0 dv=0
PairPos2: "'kern' Horizontal Kerning lookup 15-2" uni0640 dx=-178 dy=0 dh=-178 dv=0 dx=0 dy=0 dh=0 dv=0
PairPos2: "'kern' Horizontal Kerning lookup 15-2" uniFE8B dx=-178 dy=0 dh=-178 dv=0 dx=0 dy=0 dh=0 dv=0
PairPos2: "'kern' Horizontal Kerning lookup 15-2" uniFB7C dx=-120 dy=0 dh=-120 dv=0 dx=0 dy=0 dh=0 dv=0
PairPos2: "'kern' Horizontal Kerning lookup 15-2" uniFE91 dx=-60 dy=0 dh=-60 dv=0 dx=0 dy=0 dh=0 dv=0
PairPos2: "'kern' Horizontal Kerning lookup 15-5" uni06C0 dx=-178 dy=0 dh=-178 dv=0 dx=0 dy=0 dh=0 dv=0
Substitution2: "'fina' Terminal Forms in Arabic lookup 9 subtable" uniFEAE
EndChar

StartChar: uni0633
Encoding: 1587 1587 27
GlifName: uni0633
Width: 2479
VWidth: 2551
GlyphClass: 2
Flags: HW
AnchorPoint: "Anchor-7" 688 -683 basechar 0
AnchorPoint: "Anchor-10" 1775 1049 basechar 0
LayerCount: 2
Fore
SplineSet
1322 382 m 2
 1322 229.686523438 1393.89160156 149.978515625 1527.19921875 149.978515625 c 0
 1651.09179688 149.978515625 1720 224.651367188 1720 357.942382812 c 2
 1720.94238281 604 l 1
 1861.05761719 604 l 1
 1862 359.883789062 l 2
 1863.05273438 224.090820312 1930.76855469 150.98828125 2058.27539062 150.98828125 c 0
 2165.85253906 150.98828125 2219 225.025390625 2219 356 c 2
 2219 636 l 1
 2364 636 l 1
 2364 348 l 2
 2364 121.71484375 2254.96777344 0 2064 0 c 0
 1937.61914062 0 1863.10058594 44.3359375 1808.82324219 133.78125 c 2
 1795.49902344 155.739257812 l 1
 1782.921875 133.345703125 l 2
 1731.91992188 42.537109375 1645.80175781 0 1521.08886719 0 c 0
 1443.46191406 0.923828125 1377.34863281 25.201171875 1337 79 c 2
 1310 115 l 1
 1310 70 l 1
 1310 37 l 2
 1310 -289.181640625 1124.703125 -449 744 -449 c 2
 693 -449 l 2
 305.138671875 -449 115 -274.026367188 115 86 c 2
 115 412 l 1
 259 412 l 1
 259 87 l 2
 259 -169.487304688 409.340820312 -300 693 -300 c 2
 744 -300 l 2
 1025.88964844 -300 1176 -189.225585938 1176 32 c 2
 1176 601 l 1
 1322 601 l 1
 1322 382 l 2
EndSplineSet
Substitution2: "'fina' Terminal Forms in Arabic lookup 9 subtable" uniFEB2
Substitution2: "'medi' Medial Forms in Arabic lookup 11 subtable" uniFEB4
Substitution2: "'init' Initial Forms in Arabic lookup 13 subtable" uniFEB3
EndChar

StartChar: uni0635
Encoding: 1589 1589 29
GlifName: uni0635
Width: 2505
VWidth: 2551
GlyphClass: 2
Flags: HW
AnchorPoint: "Anchor-10" 1977 1133 basechar 0
AnchorPoint: "Anchor-7" 688 -683 basechar 0
LayerCount: 2
Fore
SplineSet
1322 402 m 2
 1322 264.9453125 1366.90136719 186.91796875 1441.2890625 173.247070312 c 2
 1452.89257812 171.114257812 l 1
 1457.69824219 181.888671875 l 2
 1623.29589844 553.095703125 1777.97070312 745 2015 745 c 0
 2224.3671875 745 2390 566.94921875 2390 352 c 0
 2390 119.583007812 2218.34277344 0 1958 0 c 2
 1618 0 l 2
 1461.53808594 0 1371.24609375 30.1064453125 1337.44726562 80.3701171875 c 2
 1310 121.189453125 l 1
 1310 72 l 1
 1310 37 l 2
 1310 -289.181640625 1124.703125 -449 744 -449 c 2
 693 -449 l 2
 305.138671875 -449 115 -274.026367188 115 86 c 2
 115 412 l 1
 259 412 l 1
 259 87 l 2
 259 -169.487304688 409.340820312 -300 693 -300 c 2
 744 -300 l 2
 1025.88964844 -300 1176 -189.225585938 1176 32 c 2
 1176 601 l 1
 1322 601 l 1
 1322 402 l 2
2245 332 m 0
 2245 479.895507812 2135.94433594 592 2004 592 c 0
 1858.92285156 592 1727.359375 445.240234375 1603.33398438 171.184570312 c 2
 1593.74707031 150 l 1
 1617 150 l 1
 1978 150 l 2
 2129.12695312 150 2245 196.90625 2245 332 c 0
EndSplineSet
Substitution2: "'fina' Terminal Forms in Arabic lookup 9 subtable" uniFEBA
Substitution2: "'medi' Medial Forms in Arabic lookup 11 subtable" uniFEBC
Substitution2: "'init' Initial Forms in Arabic lookup 13 subtable" uniFEBB
EndChar

StartChar: uni0637
Encoding: 1591 1591 31
GlifName: uni0637
Width: 1358
VWidth: 2551
GlyphClass: 2
Flags: HW
AnchorPoint: "Anchor-7" 606 -253 basechar 0
AnchorPoint: "Anchor-10" 447 1448 basechar 0
LayerCount: 2
Fore
SplineSet
1098 332 m 0
 1098 479.408203125 989.033203125 592 857 592 c 0
 711.922851562 592 580.359375 445.240234375 456.333984375 171.184570312 c 2
 446.747070312 150 l 1
 470 150 l 1
 831 150 l 2
 982.197265625 150 1098 197.1171875 1098 332 c 0
384 331 m 1
 384 1305 l 1
 520 1305 l 1
 520 584 l 1
 520 544.581054688 l 1
 546.205078125 574.028320312 l 2
 641.6640625 681.295898438 746.728515625 745 868 745 c 0
 1077.04785156 745 1243 567.40234375 1243 352 c 0
 1243 119.405273438 1071.4921875 0 811 0 c 2
 115 0 l 1
 115 150 l 1
 289 150 l 1
 299.037109375 150 l 1
 302.865234375 159.27734375 l 2
 328.50390625 221.40234375 355.232421875 269.923828125 382.416015625 324.291992188 c 2
 384 327.458984375 l 1
 384 331 l 1
EndSplineSet
Substitution2: "'fina' Terminal Forms in Arabic lookup 9 subtable" uniFEC2
Substitution2: "'medi' Medial Forms in Arabic lookup 11 subtable" uniFEC4
Substitution2: "'init' Initial Forms in Arabic lookup 13 subtable" uniFEC3
EndChar

StartChar: uni0639
Encoding: 1593 1593 33
GlifName: uni0639
Width: 1244
VWidth: 2551
GlyphClass: 2
Flags: HW
AnchorPoint: "Anchor-7" 743.334 -890.653 basechar 0
AnchorPoint: "Anchor-10" 739 1208 basechar 0
LayerCount: 2
Fore
SplineSet
115 -212 m 0
 115 23.3798828125 243.615234375 197.387695312 503.727539062 283.764648438 c 2
 526.790039062 291.422851562 l 1
 509.606445312 308.606445312 l 1
 507.606445312 310.606445312 l 1
 507.249023438 310.963867188 l 1
 506.868164062 311.296875 l 2
 422.72265625 384.803710938 381 476.771484375 381 567.935546875 c 0
 382.9296875 790.765625 536.506835938 938 761 938 c 0
 877.672851562 938 972.47265625 891.966796875 1048.97070312 801.270507812 c 1
 990.998046875 694.98828125 l 1
 923.864257812 753.688476562 847.936523438 783 765 783 c 0
 640.689453125 783 526 709.338867188 526 570 c 0
 526 482.892578125 583.690429688 398.602539062 690.598632812 337.953125 c 2
 694.041992188 336 l 1
 698 336 l 1
 699 336 l 1
 699.615234375 336 l 1
 700.228515625 336.05078125 l 2
 772.609375 341.999023438 852.23046875 344 939 344 c 2
 1092 344 l 1
 1092 193 l 1
 923 193 l 2
 487.630859375 193 257 51.9755859375 257 -208 c 0
 257 -445.61328125 447.774414062 -549 802 -549 c 2
 1129 -549 l 1
 1129 -695 l 1
 790 -695 l 2
 384.646484375 -695 115 -543.045898438 115 -212 c 0
EndSplineSet
Substitution2: "'fina' Terminal Forms in Arabic lookup 9 subtable" uniFECA
Substitution2: "'medi' Medial Forms in Arabic lookup 11 subtable" uniFECC
Substitution2: "'init' Initial Forms in Arabic lookup 13 subtable" uniFECB
EndChar

StartChar: uni0640
Encoding: 1600 1600 35
GlifName: afii57440
Width: 250
VWidth: 2551
GlyphClass: 2
Flags: HW
AnchorPoint: "Anchor-10" 118 870 basechar 0
AnchorPoint: "Anchor-7" 130 -187 basechar 0
LayerCount: 2
Fore
SplineSet
253.84765625 150 m 6
 270 150 280 122.767578125 280 82 c 6
 280 71 l 6
 280 28.228515625 270 -1.99722671345e-15 253.69140625 -0 c 6
 -3.69140625 0 l 2
 -21 0 -30 28.8388671875 -30 71 c 2
 -30 82 l 2
 -30 123.395507812 -20 150 -3.84765625 150 c 2
 253.84765625 150 l 6
EndSplineSet
EndChar

StartChar: uni0643
Encoding: 1603 1603 38
GlifName: uni0643
Width: 1889
VWidth: 2551
GlyphClass: 2
Flags: HW
AnchorPoint: "Anchor-7" 850 -248 basechar 0
AnchorPoint: "Anchor-10" 948.836 1260.23 basechar 0
LayerCount: 2
Fore
SplineSet
860.8359375 589.23046875 m 0
 946.049804688 589.23046875 1051.8359375 597.137695312 1051.8359375 683.23046875 c 0
 1051.8359375 806.537109375 786.7265625 721.883789062 786.7265625 913.451171875 c 0
 786.7265625 1026.046875 871.442382812 1098.58300781 1039.765625 1098.58300781 c 0
 1062.77832031 1098.58300781 1088.19042969 1096.90917969 1110.8359375 1094.11230469 c 1
 1110.8359375 1017.69921875 l 1
 1090.87402344 1019.35742188 1072.18066406 1020.28027344 1052.36425781 1020.28027344 c 0
 968.57421875 1020.28027344 869.8359375 1001.95800781 869.8359375 914.23046875 c 0
 869.8359375 764.913085938 1131.8359375 858.634765625 1131.8359375 702.23046875 c 0
 1131.8359375 550.235351562 1002.04882812 504 846 504 c 0
 807.939453125 504 760.779296875 509.34765625 717.8359375 515.268554688 c 1
 717.8359375 599.522460938 l 1
 765.6953125 594.333984375 812.723632812 589.23046875 860.8359375 589.23046875 c 0
538 150 m 2
 1352 150 l 2
 1512.97460938 150 1594 248.905273438 1594 433 c 2
 1594 1303 l 1
 1731 1303 l 1
 1731 430 l 2
 1731 138.7890625 1604.68457031 0 1347 0 c 2
 535 0 l 2
 254.313476562 0 117 139.833984375 117 427 c 2
 117 623 l 1
 262 623 l 1
 262 428 l 2
 262 246.036132812 356.834960938 150 538 150 c 2
EndSplineSet
Substitution2: "'fina' Terminal Forms in Arabic lookup 9 subtable" uniFEDA
Substitution2: "'medi' Medial Forms in Arabic lookup 11 subtable" uniFEDC
Substitution2: "'init' Initial Forms in Arabic lookup 13 subtable" uniFEDB
EndChar

StartChar: uni0644
Encoding: 1604 1604 39
GlifName: uni0644
Width: 1334
VWidth: 2551
GlyphClass: 2
Flags: HW
AnchorPoint: "Anchor-10" 599 979.1 basechar 0
AnchorPoint: "Anchor-7" 652 -671 basechar 0
LayerCount: 2
Fore
SplineSet
259 87 m 2
 259 -165.047851562 389.903320312 -296 641 -296 c 2
 694 -296 l 2
 922.762695312 -296 1040 -170.330078125 1040 71 c 2
 1040 1303 l 1
 1175.98828125 1303 l 1
 1175 67 l 2
 1175 -279.518554688 1014.36523438 -447 687 -447 c 2
 641 -447 l 2
 287.192382812 -447 115 -273.096679688 115 86 c 2
 115 412 l 1
 259 412 l 1
 259 87 l 2
EndSplineSet
Substitution2: "'fina' Terminal Forms in Arabic lookup 9 subtable" uniFEDE
Substitution2: "'medi' Medial Forms in Arabic lookup 11 subtable" uniFEE0
Substitution2: "'init' Initial Forms in Arabic lookup 13 subtable" uniFEDF
EndChar

StartChar: uni0645
Encoding: 1605 1605 40
GlifName: uni0645
Width: 1305
VWidth: 2551
GlyphClass: 2
Flags: HW
AnchorPoint: "Anchor-10" 725 1121 basechar 0
AnchorPoint: "Anchor-7" 775 -293 basechar 0
LayerCount: 2
Fore
SplineSet
840 569 m 2
 681 569 l 1
 666 569 l 1
 666 554 l 1
 666 353 l 2
 666 195.393554688 733.4765625 109 866 109 c 0
 987.74609375 109 1047 196.68359375 1047 353 c 2
 1047 395 l 2
 1047 510.24609375 972.864257812 569 840 569 c 2
255 144 m 2
 255 -496 l 1
 115.022460938 -496 l 1
 116 143.977539062 l 2
 116.586914062 528.259765625 268.313476562 711 580 711 c 2
 855 711 l 2
 1081.63183594 711 1190 608.243164062 1190 396 c 2
 1190 352 l 2
 1190 98.525390625 1083.44140625 -20 866 -20 c 0
 634.912109375 -20 523 99.17578125 523 351 c 2
 523 539 l 1
 523 554 l 1
 508 554 l 2
 312.970703125 554 255 375.9375 255 144 c 2
EndSplineSet
Substitution2: "'init' Initial Forms in Arabic lookup 13 subtable" uniFEE3
Substitution2: "'medi' Medial Forms in Arabic lookup 11 subtable" uniFEE4
Substitution2: "'fina' Terminal Forms in Arabic lookup 9 subtable" uniFEE2
EndChar

StartChar: uni0647
Encoding: 1607 1607 42
GlifName: uni0647
Width: 924
VWidth: 2328
GlyphClass: 2
Flags: HW
AnchorPoint: "Anchor-10" 422 1125 basechar 0
AnchorPoint: "Anchor-7" 463 -217 basechar 0
LayerCount: 2
Fore
SplineSet
255 304 m 0
 255 190.436523438 341.623046875 147 468 147 c 0
 596.303710938 147 674 193.568359375 674 308 c 0
 674 377.680664062 607.60546875 481.641601562 461.970703125 611.20703125 c 2
 450.524414062 621.389648438 l 1
 440.584960938 609.731445312 l 2
 307.9140625 454.1171875 255 375.905273438 255 304 c 0
467 0 m 0
 254.9453125 0 118 94.6796875 118 303 c 0
 118 405.258789062 178.33203125 505.166992188 348.5234375 709.397460938 c 2
 357.420898438 720.07421875 l 1
 347.452148438 729.758789062 l 1
 322.451171875 754.044921875 l 1
 412.616210938 861.581054688 l 1
 711.518554688 597.49609375 812 461.123046875 812 302 c 0
 812 94.5322265625 677.932617188 0 467 0 c 0
EndSplineSet
Substitution2: "'fina' Terminal Forms in Arabic lookup 9 subtable" uniFEEA
Substitution2: "'medi' Medial Forms in Arabic lookup 11 subtable" uniFEEC
Substitution2: "'init' Initial Forms in Arabic lookup 13 subtable" uniFEEB
EndChar

StartChar: uni0648
Encoding: 1608 1608 43
GlifName: uni0648
Width: 880
VWidth: 2551
GlyphClass: 2
Flags: HW
AnchorPoint: "Anchor-7" 394 -634 basechar 0
AnchorPoint: "Anchor-10" 444 1039 basechar 0
LayerCount: 2
Fore
SplineSet
765 333 m 2
 765 -15 l 2
 765 -291.41796875 575.782226562 -467 202 -467 c 2
 143 -467 l 1
 143 -321 l 1
 196 -321 l 2
 468.111328125 -321 623.938476562 -215.447265625 625 -17 c 2
 625 -15 l 1
 625 0 l 1
 610 0 l 1
 448 0 l 2
 222.75 0 114.993164062 105.387695312 114.993164062 324.083007812 c 0
 114.993164062 540.54296875 224.852539062 695 447 695 c 0
 649.73828125 695 765 558.842773438 765 333 c 2
252 328 m 0
 252 211.799804688 321.04296875 150 447 150 c 2
 611 150 l 1
 626 150 l 1
 626 165 l 1
 626 334 l 2
 626 476.579101562 554.110351562 553 443 553 c 0
 316.201171875 553 252 462.826171875 252 328 c 0
EndSplineSet
Substitution2: "'fina' Terminal Forms in Arabic lookup 9 subtable" uniFEEE
EndChar

StartChar: uni0649
Encoding: 1609 1609 44
GlifName: uni0649
Width: 1442
VWidth: 2551
GlyphClass: 2
Flags: HW
AnchorPoint: "Anchor-10" 580 1000 basechar 0
AnchorPoint: "Anchor-7" 699 -683 basechar 0
LayerCount: 2
Fore
SplineSet
741 277 m 2
 741 571.901367188 886.223632812 716 1110 716 c 2
 1326.0859375 716 l 1
 1326.9140625 571 l 1
 1105 571 l 2
 961.283203125 571 888.076171875 466.689453125 884 277.161132812 c 1
 884 214 l 1
 884 199 l 1
 899 199 l 1
 1059 199 l 2
 1242.84472656 199 1326 131.06640625 1326 -6 c 2
 1326 -35 l 2
 1326 -310.69921875 1149.24316406 -447 775 -447 c 2
 691 -447 l 2
 305.224609375 -447 115 -271.09375 115 90 c 2
 115 485 l 1
 257 485 l 1
 257 90 l 2
 257 -167.494140625 408.331054688 -298 691 -298 c 2
 775 -298 l 2
 1033.81542969 -298 1184 -220.346679688 1184 -53 c 2
 1184 -41 l 2
 1184 23.494140625 1136.54199219 55 1059 55 c 2
 901 55 l 2
 793.315429688 55 741 102.9609375 741 205 c 2
 741 277 l 2
EndSplineSet
Substitution2: "'fina' Terminal Forms in Arabic lookup 9 subtable" uniFEF0
Substitution2: "'medi' Medial Forms in Arabic lookup 11 subtable" uniFBE9
Substitution2: "'init' Initial Forms in Arabic lookup 13 subtable" uniFBE8
EndChar

StartChar: uni064B
Encoding: 1611 1611 46
GlifName: uni064B_
Width: -26
VWidth: 2316
GlyphClass: 4
Flags: HW
AnchorPoint: "Anchor-10" 583.551 1123.65 mark 0
AnchorPoint: "Anchor-9" 583.551 1123.65 mark 0
AnchorPoint: "Anchor-1" 553.285 1596.25 basemark 0
AnchorPoint: "Anchor-1" 583.551 1123.65 mark 0
LayerCount: 2
Fore
SplineSet
334.5 1087.191135 m 1
 334.5 1174.96346829 l 1
 774.5 1354.83160016 l 1
 774.5 1268.02629983 l 1
 334.5 1087.191135 l 1
334.5 1299.191135 m 1
 334.5 1386.96346829 l 1
 774.5 1566.83160016 l 1
 774.5 1480.02629983 l 1
 334.5 1299.191135 l 1
EndSplineSet
EndChar

StartChar: uni064C
Encoding: 1612 1612 47
GlifName: uni064C_
Width: -26
VWidth: 2316
GlyphClass: 4
Flags: HW
AnchorPoint: "Anchor-10" 680.906 1278.67 mark 0
AnchorPoint: "Anchor-9" 680.906 1278.67 mark 0
AnchorPoint: "Anchor-1" 637.739 1852.46 basemark 0
AnchorPoint: "Anchor-1" 680.906 1278.67 mark 0
LayerCount: 2
Fore
SplineSet
496.5 1629 m 0
 496.5 1722.27792145 561.390463567 1783.5 652 1783.5 c 0
 743.099028436 1783.5 806.5 1723.30545775 806.5 1628 c 0
 806.5 1590.27283299 796.777294848 1549.1800883 780.097518112 1509.9335548 c 2
 776.408377187 1501.25322322 l 1
 785.696609996 1499.61412331 l 2
 799.470313736 1497.18346971 813.682724822 1495.96260697 822.5 1495.63867923 c 1
 822.5 1434.92995321 l 1
 804.04895551 1436.07875758 782.949837194 1438.20260268 755.382164013 1443.3715414 c 2
 749.430122537 1444.48754918 l 1
 747.085134208 1438.90424363 l 2
 684.580575274 1290.08386522 593.945355404 1218.49202128 471.867219481 1218.49202128 c 0
 345.800290784 1218.49202128 280.208688857 1304.182055 275.627890923 1483.73491895 c 1
 339.734020251 1495.09549884 l 1
 344.375132913 1355.73865187 387.302370129 1281.5 473 1281.5 c 0
 551.111694558 1281.5 620.067360496 1338.48756654 679.53847889 1444.32599758 c 2
 683.920228978 1452.1240274 l 1
 675.477628186 1455.07893767 l 2
 569.800285531 1492.06600761 496.5 1539.16626569 496.5 1629 c 0
715.893587725 1520.04560526 m 2
 730.1208363 1553.2425186 743.5 1592.68721022 743.5 1627 c 0
 743.5 1678.95368715 703.953052722 1718.5 656 1718.5 c 0
 602.013258019 1718.5 561.5 1681.28053872 561.5 1625 c 0
 561.5 1560.51528184 643.40832087 1532.60419209 707.080805798 1515.74971079 c 2
 713.342167544 1514.09229151 l 1
 715.893587725 1520.04560526 l 2
EndSplineSet
EndChar

StartChar: uni064D
Encoding: 1613 1613 48
GlifName: uni064D_
Width: -26
VWidth: 2316
GlyphClass: 4
Flags: HW
AnchorPoint: "Anchor-7" 542.278 32.7109 mark 0
AnchorPoint: "Anchor-6" 542.278 32.7109 mark 0
AnchorPoint: "Anchor-0" 592.022 -407.025 basemark 0
AnchorPoint: "Anchor-0" 542.278 32.7109 mark 0
LayerCount: 2
Fore
SplineSet
339.5 -434.840865459 m 1
 339.5 -347.040713488 l 1
 780.5 -167.159134541 l 1
 780.5 -254.959286512 l 1
 339.5 -434.840865459 l 1
339.5 -222.840865459 m 1
 339.5 -135.040713488 l 1
 780.5 44.840865459 l 1
 780.5 -42.9592865116 l 1
 339.5 -222.840865459 l 1
EndSplineSet
EndChar

StartChar: uni064E
Encoding: 1614 1614 49
GlifName: uni064E_
Width: -26
VWidth: 2316
GlyphClass: 4
Flags: HW
AnchorPoint: "Anchor-10" 545.66 1397.63 mark 0
AnchorPoint: "Anchor-9" 545.66 1397.63 mark 0
AnchorPoint: "Anchor-1" 541.396 1651.77 basemark 0
AnchorPoint: "Anchor-1" 545.66 1397.63 mark 0
LayerCount: 2
Fore
SplineSet
303.5 1360.15913454 m 1
 303.5 1447.95928651 l 1
 744.5 1627.84086546 l 1
 744.5 1540.04071349 l 1
 303.5 1360.15913454 l 1
EndSplineSet
EndChar

StartChar: uni064F
Encoding: 1615 1615 50
GlifName: uni064F_
Width: -26
VWidth: 2316
GlyphClass: 4
Flags: HW
AnchorPoint: "Anchor-10" 591.295 1359.37 mark 0
AnchorPoint: "Anchor-9" 591.295 1359.37 mark 0
AnchorPoint: "Anchor-1" 542.134 1865.4 basemark 0
AnchorPoint: "Anchor-1" 591.295 1359.37 mark 0
LayerCount: 2
Fore
SplineSet
715.5 1434.54859241 m 1
 689.218438318 1434.9292088 667.755177047 1436.77974955 644.140428882 1440.41278773 c 2
 639.579294831 1441.11450066 l 1
 636.896998966 1437.35928645 l 2
 574.643678313 1350.20463754 465.03383432 1301.06313957 307.5 1290.95731291 c 1
 307.5 1354.17667204 l 1
 437.16958714 1367.02749294 523.107785238 1398.41964059 571.464707517 1449.86317493 c 2
 580.91055513 1459.91194899 l 1
 567.341640787 1462.37902433 l 2
 477.130879005 1478.78098102 387.5 1538.20784298 387.5 1626 c 0
 387.5 1719.68809712 452.57937066 1780.5 543 1780.5 c 0
 633.648031 1780.5 698.5 1719.27365602 698.5 1625 c 0
 698.5 1587.17106824 689.789350025 1549.19108626 673.071934148 1508.87261267 c 2
 669.410040265 1500.04098625 l 1
 678.859571118 1498.58721227 l 2
 689.540272519 1496.94402744 704.363132528 1495.09738301 715.5 1494.65169877 c 1
 715.5 1434.54859241 l 1
606.893587725 1517.04560526 m 2
 621.1208363 1550.2425186 634.5 1589.68721022 634.5 1624 c 0
 634.5 1676.45933072 595.582049252 1714.5 547 1714.5 c 0
 492.755167483 1714.5 452.5 1678.65195905 452.5 1622 c 0
 452.5 1557.51528184 534.40832087 1529.60419209 598.080805798 1512.74971079 c 2
 604.342167544 1511.09229151 l 1
 606.893587725 1517.04560526 l 2
EndSplineSet
EndChar

StartChar: uni0650
Encoding: 1616 1616 51
GlifName: uni0650
Width: -26
VWidth: 2316
GlyphClass: 4
Flags: HW
AnchorPoint: "Anchor-7" 571.144 -44.8242 mark 0
AnchorPoint: "Anchor-6" 571.144 -44.8242 mark 0
AnchorPoint: "Anchor-0" 619.091 -324.624 basemark 0
AnchorPoint: "Anchor-0" 571.144 -44.8242 mark 0
LayerCount: 2
Fore
SplineSet
350.5 -334.808865 m 1
 350.5 -247.036531713 l 1
 790.5 -67.1683998447 l 1
 790.5 -153.973700165 l 1
 350.5 -334.808865 l 1
EndSplineSet
EndChar

StartChar: uni0651
Encoding: 1617 1617 52
GlifName: uni0651
Width: -26
VWidth: 2393
GlyphClass: 4
Flags: HW
AnchorPoint: "Anchor-10" 598.801 1453.71 mark 0
AnchorPoint: "Anchor-9" 598.801 1453.71 mark 0
AnchorPoint: "Anchor-1" 570.087 1839.1 basemark 0
AnchorPoint: "Anchor-1" 598.801 1453.71 mark 0
LayerCount: 2
Fore
SplineSet
600.743547229 1750.5 m 1
 601.557593352 1723.33259063 601.636454907 1700.88046097 603.520489221 1675.44599774 c 0
 608.058525969 1614.1785675 630.48046162 1566.5 681 1566.5 c 0
 733.920269285 1566.5 755.5 1607.04585602 755.5 1675 c 0
 755.5 1699.56615035 749.638047728 1738.98321098 739.924755886 1786.82552841 c 1
 813.610691486 1798.54829089 l 1
 824.435293002 1759.35456109 829.5 1722.36954288 829.5 1685 c 0
 829.5 1551.71285576 782.611418694 1490.44540493 689.96173569 1489.5 c 0
 648.984550843 1489.5 603.89316699 1509.98417585 587.708203932 1542.35410197 c 2
 578.724453665 1560.3216025 l 1
 573.735021005 1540.86281513 l 2
 554.909246569 1467.44229483 491.472420631 1445.5 432 1445.5 c 0
 343.427786435 1445.5 301.373817788 1500.85757604 301.373817788 1616.0779836 c 0
 301.373817788 1648.90282622 305.705813916 1680.28417872 312.516732563 1707.47709141 c 1
 376.020174042 1696.8931845 l 1
 370.155902763 1667.9543285 368.5 1642.50815284 368.5 1620 c 0
 368.5 1561.66805298 394.247056355 1528.5 444 1528.5 c 0
 536.491680639 1528.5 538.9140625 1599.4347285 538.9140625 1719.33203125 c 0
 538.9140625 1729.26184599 538.821414271 1740.21372003 538.648048157 1750.5 c 1
 600.743547229 1750.5 l 1
EndSplineSet
EndChar

StartChar: uni0652
Encoding: 1618 1618 53
GlifName: uni0652
Width: -26
VWidth: 2316
GlyphClass: 4
Flags: HW
AnchorPoint: "Anchor-10" 595.219 1271.43 mark 0
AnchorPoint: "Anchor-9" 595.219 1271.43 mark 0
AnchorPoint: "Anchor-1" 589.537 1682.66 basemark 0
AnchorPoint: "Anchor-1" 595.219 1271.43 mark 0
LayerCount: 2
Fore
SplineSet
428.57421875 1461.82128906 m 0
 428.57421875 1553.88205357 502.344376928 1627.64941406 594.40234375 1627.64941406 c 0
 686.462274434 1627.64941406 760.231445312 1553.8786498 760.231445312 1461.82128906 c 0
 760.231445312 1415.17740693 744.30760472 1376.31850332 712.10690685 1344.11780544 c 0
 679.905434424 1311.91695792 641.046243431 1295.99316406 594.40234375 1295.99316406 c 0
 502.342643912 1295.99316406 428.57421875 1369.7643182 428.57421875 1461.82128906 c 0
495.164922073 1461.02238719 m 0
 494.212106963 1405.19608371 540.47911487 1359.5296594 596.772414204 1359.42872332 c 0
 652.881581353 1359.5306562 698.564484698 1405.00487718 698.351508114 1460.99389902 c 0
 698.565134707 1517.08915009 652.90941655 1562.45067148 596.737235839 1562.61422684 c 0
 540.503237893 1562.45262299 494.206922961 1517.08781026 495.164922073 1461.02238719 c 0
EndSplineSet
EndChar

StartChar: uni0653
Encoding: 1619 1619 54
GlifName: uni0653
Width: 11
VWidth: 2551
GlyphClass: 4
Flags: HW
AnchorPoint: "Anchor-10" 402 1465 mark 0
AnchorPoint: "Anchor-9" 402 1465 mark 0
AnchorPoint: "Anchor-1" 387 1771 basemark 0
AnchorPoint: "Anchor-1" 402 1465 mark 0
LayerCount: 2
Fore
SplineSet
323 1679 m 6
 701.134222102 1679 l 5
 702.863951831 1551 l 5
 333 1551 l 6
 249.162245721 1551 199.839314248 1495.87007887 168.733356962 1428.95157695 c 1
 74.0459270785 1492.92957012 l 1
 112.534895903 1596.11453911 196.332840308 1679 323 1679 c 6
EndSplineSet
EndChar

StartChar: uni0657
Encoding: 1623 1623 57
GlifName: uni0657
Width: -26
VWidth: 2316
GlyphClass: 4
Flags: HW
AnchorPoint: "Anchor-10" 513.285 1400.55 mark 0
AnchorPoint: "Anchor-9" 513.285 1400.55 mark 0
AnchorPoint: "Anchor-1" 537.285 2069.85 basemark 0
AnchorPoint: "Anchor-1" 513.285 1400.55 mark 0
LayerCount: 2
Fore
SplineSet
272.5 1797.2866979 m 1
 311.33346875 1796.05990091 350.209425692 1793.2226341 394.206604591 1788.54208315 c 2
 397.769638688 1788.16303697 l 1
 400.303300859 1790.69669914 l 1
 401.303300859 1791.69669914 l 1
 401.760090444 1792.15348873 l 1
 402.132042295 1792.68166036 l 2
 499.523227924 1930.97714395 624.306955889 2007.99217227 777.5 2024.70438965 c 1
 777.5 1961.34249361 l 1
 654.417790069 1939.69481869 555.863863087 1880.32604661 480.073351491 1782.59617639 c 2
 473.325482753 1773.89497723 l 1
 483.893259351 1770.80196945 l 2
 570.082098102 1745.57596786 650.5 1692.12992471 650.5 1599 c 0
 650.5 1511.48681896 588.812368537 1445.5 501 1445.5 c 0
 412.240184295 1445.5 339.5 1506.96726988 339.5 1603 c 0
 339.5 1630.82816136 346.303453693 1670.21503389 362.143181104 1719.71418205 c 2
 365.043158159 1728.77661034 l 1
 355.554037641 1729.47950816 l 2
 330.791123735 1731.31379808 302.246464635 1733.20045957 272.5 1733.46804263 c 1
 272.5 1797.2866979 l 1
501 1508.5 m 0
 553.400212728 1508.5 584.5 1545.6358912 584.5 1597 c 0
 584.5 1665.05595738 504.494275168 1700.63958918 438.737153954 1716.29604661 c 2
 432.54110413 1717.77129657 l 1
 430.081692588 1711.89603566 l 2
 411.895133839 1668.45036754 402.5 1633.64294698 402.5 1605 c 0
 402.5 1548.47611356 447.521966001 1508.5 501 1508.5 c 0
EndSplineSet
EndChar

StartChar: uni065A
Encoding: 1626 1626 58
GlifName: uni065A_
Width: 1135
VWidth: 2316
GlyphClass: 4
Flags: HW
AnchorPoint: "Anchor-10" 573.285 1350.55 mark 0
AnchorPoint: "Anchor-9" 573.285 1350.55 mark 0
AnchorPoint: "Anchor-1" 571.012 1862.38 basemark 0
AnchorPoint: "Anchor-1" 573.285 1350.55 mark 0
LayerCount: 2
Fore
SplineSet
506.262206006 1451.5 m 1
 322.197391191 1760.5 l 1
 428.692222507 1760.5 l 1
 566.521658243 1524.22096731 l 1
 572.97696627 1513.15472498 l 1
 579.4665836 1524.20088214 l 1
 718.292315345 1760.5 l 1
 824.767591661 1760.5 l 1
 639.749073142 1451.5 l 1
 506.262206006 1451.5 l 1
EndSplineSet
EndChar

StartChar: uni0660
Encoding: 1632 1632 59
GlifName: afii57392
Width: 890
VWidth: 2551
GlyphClass: 2
Flags: HW
LayerCount: 2
Fore
SplineSet
278 493 m 4
 278 400.815429688 352.588867188 325 445 325 c 4
 537.41015625 325 612 400.815429688 612 493 c 4
 612 585.184570312 537.411132812 661 445 661 c 4
 352.58984375 661 278 585.184570312 278 493 c 4
155 493 m 4
 155 652.702148438 285.297851562 783 445 783 c 4
 604.702148438 783 735 652.702148438 735 493 c 4
 735 333.297851562 604.702148438 203 445 203 c 4
 285.297851562 203 155 333.297851562 155 493 c 4
EndSplineSet
EndChar

StartChar: uni0661
Encoding: 1633 1633 60
GlifName: afii57393
Width: 682
VWidth: 2551
GlyphClass: 2
Flags: HW
LayerCount: 2
Fore
SplineSet
453 4 m 1
 312 4 l 1
 312 285 l 2
 312 645.66015625 271.870117188 962.859375 193.590820312 1231.01269531 c 1
 327.92578125 1272.21972656 l 1
 411.88671875 985.729492188 453 658.654296875 453 284 c 2
 453 4 l 1
EndSplineSet
EndChar

StartChar: uni0662
Encoding: 1634 1634 61
GlifName: afii57394
Width: 1096
VWidth: 2551
GlyphClass: 2
Flags: HW
LayerCount: 2
Fore
SplineSet
628.849609375 865.982421875 m 0
 827.587890625 865.982421875 831 1004.0078125 831 1198 c 2
 831 1278 l 1
 966 1278 l 1
 966 1202 l 2
 966 885.149414062 909.77734375 717 626 717 c 0
 587.934570312 717 500.625 730.295898438 450.645507812 759.905273438 c 2
 423.459960938 776.010742188 l 1
 428.166992188 744.765625 l 2
 443.125976562 645.48046875 453 474.939453125 453 285 c 2
 453 4 l 1
 312 4 l 1
 312 285 l 2
 312 644.717773438 271.90234375 961.7421875 194.537109375 1230.96972656 c 1
 328.891601562 1271.93164062 l 1
 403.361328125 938.728515625 l 1
 404.748046875 932.5234375 l 1
 410.170898438 929.205078125 l 2
 479.4765625 886.793945312 555.543945312 865.982421875 628.849609375 865.982421875 c 0
EndSplineSet
EndChar

StartChar: uni0663
Encoding: 1635 1635 62
GlifName: afii57395
Width: 1395
VWidth: 2551
GlyphClass: 2
Flags: HW
LayerCount: 2
Fore
SplineSet
576.796875 865.989257812 m 0
 672.108398438 865.989257812 723 963.341796875 723 1086.90917969 c 2
 723.909179688 1237 l 1
 856.909179688 1237 l 1
 856 1087 l 2
 856 971.229492188 885.892578125 866 998 866 c 0
 1077.08886719 866 1140 916.583007812 1140 1092 c 2
 1140 1276 l 1
 1272 1276 l 1
 1272 1092 l 2
 1272 838.657226562 1171.0234375 717 1008 717 c 0
 914.415039062 717 861.478515625 748.323242188 811.48046875 823.3203125 c 2
 799 842.041992188 l 1
 786.51953125 823.3203125 l 2
 737.412109375 749.661132812 684.668945312 717 598 717 c 0
 533.805465681 717 475.342773438 743.194335938 424 774 c 5
 427.145507812 751.918945312 l 2
 445.977165212 619.723165907 453 469.8515625 453 285 c 2
 453 4 l 1
 312 4 l 1
 312 285 l 2
 312 644.717773438 271.90234375 961.7421875 194.537109375 1230.96972656 c 1
 328.891601562 1271.93164062 l 1
 403.361328125 938.728515625 l 1
 404.529296875 933.501953125 l 1
 408.743164062 930.197265625 l 2
 460.977539062 889.228515625 508.3125 865.989257812 576.796875 865.989257812 c 0
EndSplineSet
EndChar

StartChar: uni0664
Encoding: 1636 1636 63
GlifName: afii57396
Width: 966
VWidth: 2551
GlyphClass: 2
Flags: HW
LayerCount: 2
Fore
SplineSet
156.999023438 307.873046875 m 0
 157.924804688 431.900390625 265.890625 539.666992188 494.446289062 648.456054688 c 2
 522.204101562 661.66796875 l 1
 494.708007812 675.416015625 l 2
 291.860351562 776.840820312 197 886.33984375 197 1000 c 0
 197 1173.20703125 325.397460938 1264.00878906 604 1265 c 2
 726.171875 1265 l 1
 727.828125 1120.88867188 l 1
 606.8984375 1120 l 2
 460.704101562 1119.00488281 371 1081.82910156 371 994 c 0
 371 903.157226562 494.13671875 821.870117188 715.364257812 736.90234375 c 1
 706.637695312 592.030273438 l 1
 463.413085938 510.560546875 328.877929688 429.260742188 330.000976562 315.8515625 c 0
 331.135742188 201.252929688 436.657226562 150 620 150 c 2
 840.9140625 150 l 1
 840.0859375 5 l 1
 620 5 l 2
 615.881835938 5 611.791015625 5.017578125 607.728515625 5.052734375 c 0
 298.427734375 7.7529296875 155.135742188 110.310546875 156.999023438 307.873046875 c 0
EndSplineSet
EndChar

StartChar: uni0665
Encoding: 1637 1637 64
GlifName: afii57397
Width: 1172
VWidth: 2551
GlyphClass: 2
Flags: HW
LayerCount: 2
Fore
SplineSet
561.796875 977.974609375 m 2
 357.798828125 748.853515625 254 547.64453125 254 355 c 0
 254 217.471679688 378.465820312 154 599 154 c 0
 799.12890625 154 912 215.9921875 912 345 c 0
 912 555.1328125 801.405273438 759.3046875 588.361328125 976.818359375 c 1
 579.109375 995.322265625 l 1
 564.393554688 980.606445312 l 1
 562.393554688 978.606445312 l 1
 562.0859375 978.298828125 l 1
 561.796875 977.974609375 l 2
399.455078125 1124.97070312 m 1
 479.049804688 1247.6796875 l 1
 864.801757812 970.626953125 1055 681.72265625 1055 363 c 0
 1055 118.48046875 909.407226562 -1.9853515625 602.044921875 -1 c 0
 272.553710938 -0.0107421875 117 118.569335938 117 354 c 0
 117 575.869140625 225.545898438 807.59765625 447.422851562 1068.27734375 c 2
 448.602539062 1069.6640625 l 1
 449.416015625 1071.29199219 l 1
 450.416015625 1073.29199219 l 1
 455.250976562 1082.96191406 l 1
 447.606445312 1090.60644531 l 1
 446.606445312 1091.60644531 l 1
 445.684570312 1092.52929688 l 1
 444.616210938 1093.27832031 l 1
 399.455078125 1124.97070312 l 1
EndSplineSet
EndChar

StartChar: uni0666
Encoding: 1638 1638 65
GlifName: afii57398
Width: 1176
VWidth: 2551
GlyphClass: 2
Flags: HW
LayerCount: 2
Fore
SplineSet
129 1276.02832031 m 1
 643 1277 l 2
 849.001953125 1277 949 1169.88378906 949 944 c 2
 949 4 l 1
 811 4 l 1
 811 940 l 2
 811 1052.03417969 751.03515625 1112 639 1112 c 2
 129 1112 l 1
 129 1276.02832031 l 1
EndSplineSet
EndChar

StartChar: uni0667
Encoding: 1639 1639 66
GlifName: afii57399
Width: 1201
VWidth: 2551
GlyphClass: 2
Flags: HW
LayerCount: 2
Fore
SplineSet
614.642578125 365.74609375 m 2
 677.676757812 649.397460938 793.141601562 946.866210938 947.01171875 1279.4609375 c 1
 1077.67773438 1211.64746094 l 1
 873.768554688 824.204101562 734.243164062 426.98828125 660.37109375 4 c 1
 540.62890625 4 l 1
 466.473632812 428.615234375 326.44140625 825.70703125 123.322265625 1211.64746094 c 1
 253.987304688 1279.4609375 l 1
 408.836914062 944.692382812 522.228515625 649.825195312 585.357421875 365.74609375 c 2
 600 299.853515625 l 1
 614.642578125 365.74609375 l 2
EndSplineSet
EndChar

StartChar: uni0668
Encoding: 1640 1640 67
GlifName: afii57400
Width: 1201
VWidth: 2551
GlyphClass: 2
Flags: HW
LayerCount: 2
Fore
SplineSet
586.357421875 904.25390625 m 2
 523.323242188 620.602539062 407.858398438 323.133789062 253.98828125 -9.4609375 c 1
 123.322265625 58.3525390625 l 1
 327.231445312 445.795898438 466.756835938 843.01171875 540.62890625 1266 c 1
 660.37109375 1266 l 1
 734.526367188 841.384765625 874.55859375 444.29296875 1077.67773438 58.3525390625 c 1
 947.012695312 -9.4609375 l 1
 792.163085938 325.307617188 678.771484375 620.174804688 615.642578125 904.25390625 c 2
 601 970.146484375 l 1
 586.357421875 904.25390625 l 2
EndSplineSet
EndChar

StartChar: uni0669
Encoding: 1641 1641 68
GlifName: afii57401
Width: 1080
GlyphClass: 2
Flags: HW
LayerCount: 2
Fore
SplineSet
145 912 m 0
 145 1096.84960938 293.640625 1283 485 1283 c 0
 739.018554688 1283 807.459960938 1092.34375 822.018554688 811.255859375 c 0
 837.034179688 508.9765625 847.924804688 249.8984375 854.599609375 -0 c 1
 716.610351562 0 l 1
 712.700195312 147.3046875 702.434570312 502.552734375 698.995117188 634.391601562 c 2
 698.483398438 654.005859375 l 1
 679.689453125 648.3671875 l 2
 647.91796875 638.8359375 576.138671875 624 496 624 c 0
 260.526367188 624 145 707.250976562 145 912 c 0
484 1142 m 0
 366.764648438 1142 281 1024.21191406 281 912 c 0
 281 805.5 351.782226562 764 499 764 c 0
 552.28515625 764 638.754882812 778.965820312 674.310546875 789.6328125 c 2
 685.698242188 793.048828125 l 1
 684.971679688 804.916992188 l 2
 678.142578125 916.458007812 670.430664062 1008.23632812 625.8984375 1073.45800781 c 0
 596.469726562 1116.56152344 550.517578125 1142 484 1142 c 0
EndSplineSet
EndChar

StartChar: uni066A
Encoding: 1642 1642 69
GlifName: afii57381
Width: 1033
VWidth: 4036
GlyphClass: 2
Flags: HW
LayerCount: 2
Fore
SplineSet
749 1297 m 5
 854 1250 l 5
 285 -10 l 5
 180 38 l 5
 749 1297 l 5
652 158 m 4
 652 223 705 277 770 277 c 4
 835 277 888 223 888 158 c 4
 888 93 835 40 770 40 c 4
 704 40 652 90 652 158 c 4
145 1124 m 4
 145 1189 198 1243 263 1243 c 4
 328 1243 381 1189 381 1124 c 4
 381 1059 328 1006 263 1006 c 4
 197 1006 145 1056 145 1124 c 4
EndSplineSet
EndChar

StartChar: uni066B
Encoding: 1643 1643 70
GlifName: uni066B_
Width: 772
VWidth: 2935
GlyphClass: 2
Flags: HW
LayerCount: 2
Fore
SplineSet
541.801757812 678.3828125 m 1
 641.235351562 636.104492188 l 1
 191.18359375 -403.30078125 l 1
 88.7783203125 -359.1875 l 1
 541.801757812 678.3828125 l 1
EndSplineSet
PairPos2: "'kern' Horizontal Kerning lookup 15-4" uni06F4 dx=-110 dy=0 dh=-110 dv=0 dx=0 dy=0 dh=0 dv=0
PairPos2: "'kern' Horizontal Kerning lookup 15-4" uni06F3 dx=-130 dy=0 dh=-130 dv=0 dx=0 dy=0 dh=0 dv=0
PairPos2: "'kern' Horizontal Kerning lookup 15-4" uni06F2 dx=-130 dy=0 dh=-130 dv=0 dx=0 dy=0 dh=0 dv=0
EndChar

StartChar: uni066C
Encoding: 1644 1644 71
GlifName: uni066C_
Width: 560
GlyphClass: 2
Flags: HW
LayerCount: 2
Fore
SplineSet
177.500831718 -280.800391925 m 1
 103.577261423 -224.77410707 l 1
 163.027848334 -137.82169846 199.332474945 -40.9013153888 202 51.7841917538 c 2
 202 204 l 1
 343 204 l 1
 343 74 l 2
 343 -67.3793816055 259.117024002 -209.405624661 177.500831718 -280.800391925 c 1
EndSplineSet
EndChar

StartChar: uni066D
Encoding: 1645 1645 72
GlifName: afii63167
Width: 1436
VWidth: 2948
GlyphClass: 2
Flags: HW
LayerCount: 2
Fore
SplineSet
196.809570312 1009 m 1
 583 1009 l 1
 593.861328125 1009 l 1
 597.250976562 1019.31933594 l 1
 718 1386.93261719 l 1
 838.749023438 1019.31933594 l 1
 842.138671875 1009 l 1
 853 1009 l 1
 1239.19042969 1009 l 1
 927.127929688 780.094726562 l 1
 918.366210938 773.66796875 l 1
 921.7421875 763.33984375 l 1
 1041.4375 397.107421875 l 1
 726.77734375 624.1640625 l 1
 718 630.497070312 l 1
 709.22265625 624.1640625 l 1
 394.5625 397.107421875 l 1
 514.2578125 763.33984375 l 1
 517.633789062 773.66796875 l 1
 508.872070312 780.094726562 l 1
 196.809570312 1009 l 1
EndSplineSet
EndChar

StartChar: uni066E
Encoding: 1646 1646 73
GlifName: uni066E_
Width: 1885
VWidth: 2551
GlyphClass: 2
Flags: HW
AnchorPoint: "Anchor-10" 878 1213 basechar 0
AnchorPoint: "Anchor-7" 918 -232 basechar 0
LayerCount: 2
Fore
SplineSet
535 150 m 2
 1360 150 l 2
 1533.54882812 150 1626 245.404296875 1626 428 c 2
 1626 610 l 1
 1770 610 l 1
 1770 431 l 2
 1770 140.520507812 1636.43945312 0 1357 0 c 2
 538 0 l 2
 257.122070312 0 115 139.08203125 115 427 c 2
 115 613 l 1
 259 613 l 1
 259 428 l 2
 259 245.982421875 354.84765625 150 535 150 c 2
EndSplineSet
Substitution2: "'fina' Terminal Forms in Arabic lookup 9 subtable" uni066E.fina
EndChar

StartChar: uni066F
Encoding: 1647 1647 74
GlifName: uni066F_
Width: 1431
VWidth: 2551
GlyphClass: 2
Flags: HW
AnchorPoint: "Anchor-10" 354 1145 basechar 0
AnchorPoint: "Anchor-7" 425 -730 basechar 0
LayerCount: 2
Fore
SplineSet
1316 333 m 2
 1316 -81 l 2
 1316 -357.166992188 1059.58007812 -449 744 -449 c 2
 693 -449 l 2
 305.138671875 -449 115 -274.026367188 115 86 c 2
 115 412 l 1
 259 412 l 1
 259 87 l 2
 259 -169.487304688 409.340820312 -300 693 -300 c 2
 744 -300 l 2
 995.415039062 -300 1175.98144531 -237.228515625 1176.00097656 -81 c 2
 1176 -15 l 1
 1176 0 l 1
 1161 0 l 1
 999 0 l 2
 773.750976562 0 665.993164062 105.387695312 665.993164062 324.083007812 c 0
 665.993164062 540.54296875 775.852539062 695 998 695 c 0
 1200.75097656 695 1316 559.18359375 1316 333 c 2
803 328 m 0
 803 211.799804688 872.04296875 150 998 150 c 2
 1162 150 l 1
 1177 150 l 1
 1177 165 l 1
 1177 334 l 2
 1177 476.579101562 1105.11035156 553 994 553 c 0
 867.201171875 553 803 462.826171875 803 328 c 0
EndSplineSet
Substitution2: "'fina' Terminal Forms in Arabic lookup 9 subtable" uni066F.fina
EndChar

StartChar: uni0670
Encoding: 1648 1648 75
GlifName: uni0670
Width: -29
VWidth: 2574
GlyphClass: 4
Flags: HW
AnchorPoint: "Anchor-10" 646.984 1500.61 mark 0
AnchorPoint: "Anchor-9" 646.984 1500.61 mark 0
AnchorPoint: "Anchor-1" 646.984 1957.18 basemark 0
AnchorPoint: "Anchor-1" 646.984 1500.61 mark 0
LayerCount: 2
Fore
SplineSet
610.5 1575.5 m 5
 610.5 1922.5 l 5
 683.5 1922.5 l 5
 683.5 1575.5 l 5
 610.5 1575.5 l 5
EndSplineSet
EndChar

StartChar: uni0674
Encoding: 1652 1652 76
GlifName: uni0674
Width: 551
VWidth: 2539
GlyphClass: 2
Flags: HW
LayerCount: 2
Fore
SplineSet
190.811354032 1975.21583295 m 2
 142.825573911 2014.09841964 123.5 2059.5990443 123.5 2133 c 0
 123.5 2256.46279206 214.690419987 2333.5 337 2333.5 c 0
 382.401402029 2333.5 425.859050309 2319.84121686 465.55342617 2296.01289123 c 1
 466.331204093 2194.05965576 l 1
 427.922268081 2215.08541349 390.148618827 2225.5 351 2225.5 c 0
 278.547920845 2225.5 223.5 2195.86372448 223.5 2119.84372657 c 0
 224.677700672 2072.75483202 252.405752487 2038.11398913 316.848126137 2014.20770063 c 0
 324.060672752 2011.80314941 330.897111632 2009.6953125 338.90234375 2009.6953125 c 0
 342.211811379 2009.6953125 344.739129838 2010.10614906 348.87785488 2011.01529798 c 0
 389.278334149 2018.76390289 432.70868436 2027.86222064 472.5 2035.79022569 c 1
 472.5 1934.84762108 l 1
 90.5 1842.8672771 l 1
 90.5 1940.01738642 l 1
 187.748605522 1962.07446657 l 1
 202.81274054 1965.49118223 l 1
 190.811354032 1975.21583295 l 2
EndSplineSet
EndChar

StartChar: uni06A1
Encoding: 1697 1697 80
GlifName: uni06A_1
Width: 1842
VWidth: 2551
GlyphClass: 2
Flags: HW
AnchorPoint: "Anchor-10" 502 1190 basechar 0
AnchorPoint: "Anchor-7" 519 -202 basechar 0
LayerCount: 2
Fore
SplineSet
1085 611 m 0
 1085 809.747070312 1199.45019531 950 1410 950 c 0
 1623.34472656 950 1727 829.905273438 1727 639 c 2
 1727 320 l 2
 1727 105.416992188 1611.81347656 0 1306 0 c 2
 536 0 l 2
 255.185546875 0 115 138.986328125 115 427 c 2
 115 613 l 1
 259 613 l 1
 259 428 l 2
 259 246.143554688 352.741210938 150 533 150 c 2
 1309 150 l 2
 1530.14746094 150 1594 202.7734375 1594 313 c 2
 1594 338 l 1
 1594 354.453125 l 1
 1577.6171875 352.936523438 l 2
 1523.73535156 347.947265625 1473.78222656 344 1426 344 c 0
 1192.88964844 344 1085 422.84375 1085 611 c 0
1412 809 m 0
 1290.20703125 809 1220 738.952148438 1220 622 c 0
 1220 509.029296875 1301.74121094 488 1434 488 c 0
 1483.22167969 488 1532.703125 492.250976562 1577.95117188 498 c 0
 1578.95117188 498 1578 498 1579 498 c 2
 1594 498 l 1
 1594 513 l 1
 1594 642 l 2
 1594 742.01171875 1529.77148438 809 1412 809 c 0
EndSplineSet
Substitution2: "'init' Initial Forms in Arabic lookup 13 subtable" uni06A1.init
Substitution2: "'medi' Medial Forms in Arabic lookup 11 subtable" uni06A1.medi
Substitution2: "'fina' Terminal Forms in Arabic lookup 9 subtable" uni06A1.fina
EndChar

StartChar: uni06A9
Encoding: 1705 1705 81
GlifName: uni06A_9
Width: 1855
VWidth: 2551
GlyphClass: 2
Flags: HW
AnchorPoint: "Anchor-10" 1065 1314 basechar 0
AnchorPoint: "Anchor-7" 848 -248 basechar 0
LayerCount: 2
Fore
SplineSet
1257 0 m 2
 532 0 l 2
 251.313476562 0 115 138.79296875 115 427 c 2
 115 613 l 1
 260 613 l 1
 260 428 l 2
 260 246.0625 354.794921875 150 535 150 c 2
 1259 150 l 2
 1425.00292969 150 1524 195.900390625 1524 299 c 0
 1524 344.33984375 1483.36914062 406.786132812 1408.30957031 491.853515625 c 2
 1094.37109375 856.782226562 l 2
 1063.3046875 892.89453125 1042 932.692382812 1042 982.90625 c 0
 1042.921875 1056.65234375 1078.81445312 1103.41601562 1150.66113281 1126.7421875 c 2
 1755 1324.31445312 l 1
 1755 1176.88378906 l 1
 1195.34667969 994.259765625 l 1
 1173.91894531 987.267578125 l 1
 1188.64257812 970.201171875 l 1
 1496.64257812 613.201171875 l 2
 1610.26660156 481.501953125 1660.02148438 390.0234375 1660.02148438 298.68359375 c 0
 1660.02148438 106.915039062 1531.00488281 0 1257 0 c 2
EndSplineSet
Substitution2: "'init' Initial Forms in Arabic lookup 13 subtable" uniFB90
Substitution2: "'medi' Medial Forms in Arabic lookup 11 subtable" uniFB91
Substitution2: "'fina' Terminal Forms in Arabic lookup 9 subtable" uniFB8F
EndChar

StartChar: uni06BA
Encoding: 1722 1722 83
GlifName: afii57514
Width: 1437
VWidth: 2551
GlyphClass: 2
Flags: HW
AnchorPoint: "Anchor-10" 597 908 basechar 0
AnchorPoint: "Anchor-7" 701 -723 basechar 0
LayerCount: 2
Fore
SplineSet
1322 601 m 1
 1322 37.1787109375 l 1
 1314.21679688 -288.74609375 1121.76660156 -449 744 -449 c 2
 693 -449 l 2
 305.138671875 -449 115 -274.026367188 115 86 c 2
 115 412 l 1
 259 412 l 1
 259 87 l 2
 259 -169.487304688 409.340820312 -300 693 -300 c 2
 744 -300 l 2
 1025.88964844 -300 1176 -189.225585938 1176 32 c 2
 1176 601 l 1
 1322 601 l 1
EndSplineSet
Substitution2: "'fina' Terminal Forms in Arabic lookup 9 subtable" uniFB9F
EndChar

StartChar: uni06F4
Encoding: 1780 1780 90
GlifName: uni06F_4
Width: 1186
VWidth: 2551
GlyphClass: 2
Flags: HW
LayerCount: 2
Fore
SplineSet
679.491210938 808.48046875 m 4
 723.111328125 797.986328125 790.747070312 788 857 788 c 0
 914.122070312 788 987.809570312 799.680664062 1065.38085938 829.037109375 c 1
 1067.82421875 688.948242188 l 1
 984.678710938 655.5546875 901.0859375 645 837 645 c 0
 683.106406818 645 537.810853616 698.86784022 427.052734375 759.872070312 c 1
 430.090820312 732.354492188 l 2
 445.008789062 597.208007812 453 430.2109375 453 285 c 2
 453 4 l 1
 312 4 l 1
 312 285 l 2
 312 643.78515625 271.930664062 960.642578125 194.517578125 1230.99023438 c 1
 327.926757812 1271.91308594 l 1
 409.3671875 910.701171875 l 1
 410.509765625 905.633789062 l 1
 438.086355653 887.227809665 480.518819932 868.251220085 516 857.114257812 c 1
 516 877 l 2
 516 1139.18945312 627.275390625 1277 829 1277 c 0
 890.01171875 1277 954.4140625 1266.54492188 1027.11914062 1223.12792969 c 1
 1015.29101562 1107.2109375 l 1
 953.834960938 1136.10058594 897.75 1145.00195312 850.442382812 1145.00195312 c 0
 715.83984375 1145.00195312 630.55859375 1053.85644531 630.55859375 864.219726562 c 0
 630.55859375 827.298828125 652.03515625 815.0859375 679.491210938 808.48046875 c 4
EndSplineSet
PairPos2: "'kern' Horizontal Kerning lookup 15-4" uni06F9 dx=-64 dy=0 dh=-64 dv=0 dx=0 dy=0 dh=0 dv=0
PairPos2: "'kern' Horizontal Kerning lookup 15-4" uni06F1 dx=-64 dy=0 dh=-64 dv=0 dx=0 dy=0 dh=0 dv=0
PairPos2: "'kern' Horizontal Kerning lookup 15-4" uni06F8 dx=-64 dy=0 dh=-64 dv=0 dx=0 dy=0 dh=0 dv=0
PairPos2: "'kern' Horizontal Kerning lookup 15-4" uni06F5 dx=-40 dy=0 dh=-40 dv=0 dx=0 dy=0 dh=0 dv=0
PairPos2: "'kern' Horizontal Kerning lookup 15-4" uni06F0 dx=-64 dy=0 dh=-64 dv=0 dx=0 dy=0 dh=0 dv=0
EndChar

StartChar: uni06F5
Encoding: 1781 1781 91
GlifName: uni06F_5
Width: 1218
VWidth: 2551
GlyphClass: 2
Flags: HW
LayerCount: 2
Fore
SplineSet
600.49609375 985.625976562 m 2
 358.926757812 696.946289062 249 484.333007812 249 309 c 0
 249 216.084960938 282.185546875 150 375 150 c 0
 494.737304688 150 544.028320312 243.3671875 554.15625 395 c 1
 664.77734375 395 l 1
 674.057617188 246.021484375 723.400390625 150 842 150 c 0
 933.666992188 150 971.009765625 208.009765625 971.009765625 306.579101562 c 0
 971.009765625 500.731445312 843.91015625 711.883789062 623.68359375 985.407226562 c 2
 612.223632812 999.640625 l 1
 600.49609375 985.625976562 l 2
378 0 m 0
 197.249023438 0 115 108.048828125 115 305 c 0
 115 541.061523438 290.958984375 817.93359375 507.674804688 1086.58203125 c 2
 515.8984375 1096.77636719 l 1
 506.905273438 1106.29980469 l 1
 465.2734375 1150.37988281 l 1
 565.53125 1264.84179688 l 1
 900.8359375 915.383789062 1103 562.053710938 1103 305 c 0
 1103 106.051757812 1021.87011719 0 839 0 c 0
 707.52030341 0 661.102539062 63.296875 610 175.078125 c 5
 559.01953125 63.5625 509.024865876 0 378 0 c 0
EndSplineSet
PairPos2: "'kern' Horizontal Kerning lookup 15-4" uni06F8 dx=-38 dy=0 dh=-38 dv=0 dx=0 dy=0 dh=0 dv=0
PairPos2: "'kern' Horizontal Kerning lookup 15-4" uni06F7 dx=-100 dy=0 dh=-100 dv=0 dx=0 dy=0 dh=0 dv=0
PairPos2: "'kern' Horizontal Kerning lookup 15-4" uni06F6 dx=-42 dy=0 dh=-42 dv=0 dx=0 dy=0 dh=0 dv=0
PairPos2: "'kern' Horizontal Kerning lookup 15-4" uni06F4 dx=-42 dy=0 dh=-42 dv=0 dx=0 dy=0 dh=0 dv=0
PairPos2: "'kern' Horizontal Kerning lookup 15-4" uni06F3 dx=-100 dy=0 dh=-100 dv=0 dx=0 dy=0 dh=0 dv=0
PairPos2: "'kern' Horizontal Kerning lookup 15-4" uni06F2 dx=-100 dy=0 dh=-100 dv=0 dx=0 dy=0 dh=0 dv=0
EndChar

StartChar: uni06F6
Encoding: 1782 1782 92
GlifName: uni06F_6
Width: 1000
VWidth: 2551
GlyphClass: 2
Flags: HW
LayerCount: 2
Fore
SplineSet
540 1143 m 0
 399.596679688 1143 288.97265625 1061.94042969 288.97265625 921.733398438 c 0
 288.97265625 777.694335938 412.4921875 714.5703125 576.974609375 714.5703125 c 0
 607.95703125 714.5703125 641.697265625 716.821289062 674.5859375 739.700195312 c 0
 725.434570312 775.198242188 763.639648438 818.35546875 818.208007812 867.5703125 c 1
 884.638671875 752.532226562 l 1
 727.083984375 621.150390625 581.499023438 396.798828125 350.514648438 -34.326171875 c 1
 223.625 25.8232421875 l 1
 368.872070312 298.305664062 406.563476562 348.971679688 539.686523438 559.997070312 c 2
 552.940429688 581.006835938 l 1
 528.17578125 582.954101562 l 2
 278.47265625 602.583984375 150 724.317382812 150 912 c 0
 150 1127.85839844 294.029296875 1279 506 1279 c 0
 581.459960938 1279 646.345703125 1264.56054688 699.943359375 1237.03613281 c 1
 699.147460938 1109.62988281 l 1
 648.552734375 1131.84570312 595.350585938 1143 540 1143 c 0
EndSplineSet
PairPos2: "'kern' Horizontal Kerning lookup 15-4" uni06F9 dx=-30 dy=0 dh=-30 dv=0 dx=0 dy=0 dh=0 dv=0
PairPos2: "'kern' Horizontal Kerning lookup 15-4" uni06F8 dx=-40 dy=0 dh=-40 dv=0 dx=0 dy=0 dh=0 dv=0
PairPos2: "'kern' Horizontal Kerning lookup 15-4" uni06F7 dx=-40 dy=0 dh=-40 dv=0 dx=0 dy=0 dh=0 dv=0
EndChar

StartChar: uniFB8F
Encoding: 64399 64399 107
GlifName: uniF_B_8F_
Width: 2020
VWidth: 2551
GlyphClass: 2
Flags: HW
AnchorPoint: "Anchor-7" 848 -248 basechar 0
AnchorPoint: "Anchor-10" 1065 1314 basechar 0
LayerCount: 2
Fore
SplineSet
2025.36523438 0 m 6
 2012 0 l 2
 1881 0 1770.21875 63.8408203125 1674.30371094 194.5859375 c 1
 1672.48046875 197.3203125 l 1
 1655.46875 222.838867188 l 1
 1645.76953125 193.743164062 l 2
 1603.31152344 66.3701171875 1480.69140625 0 1257 0 c 2
 532 0 l 2
 251.313476562 0 115 138.79296875 115 427 c 2
 115 613 l 1
 260 613 l 1
 260 428 l 2
 260 247.170898438 353.725585938 150 535 150 c 2
 1259 150 l 2
 1425.00292969 150 1524 195.900390625 1524 299 c 0
 1524 344.33984375 1483.36914062 406.786132812 1408.30957031 491.853515625 c 2
 1094.37109375 856.782226562 l 2
 1061.93359375 894.487304688 1042 932.517578125 1042 982.90625 c 0
 1042.921875 1056.65234375 1078.81445312 1103.41601562 1150.66113281 1126.7421875 c 2
 1755 1324.31445312 l 1
 1755 1176.88378906 l 1
 1195.34667969 994.259765625 l 1
 1173.88671875 987.256835938 l 1
 1188.65625 970.185546875 l 1
 1759.65625 310.185546875 l 2
 1848.93847656 206.987304688 1929 150 2002.88671875 150 c 2
 2025.52148438 150 l 6
 2042 150 2051.67382812 122.767578125 2051.67382812 82 c 6
 2051.67382812 71 l 6
 2051.67382812 28.228515625 2042 0 2025.36523438 0 c 6
EndSplineSet
EndChar

StartChar: uniFB9F
Encoding: 64415 64415 115
GlifName: uniF_B_9F_
Width: 1590
VWidth: 2551
GlyphClass: 2
Flags: HW
AnchorPoint: "Anchor-7" 691 -683 basechar 0
AnchorPoint: "Anchor-10" 644 791 basechar 0
LayerCount: 2
Fore
SplineSet
1594.0859375 0 m 2
 1557 0 l 2
 1409.68232713 0 1357.93327457 39.6115620794 1309 107.41796875 c 5
 1309 61 l 1
 1309 37 l 2
 1309 -289.321289062 1128.65039062 -449 744 -449 c 2
 693 -449 l 2
 305.138671875 -449 115 -274.026367188 115 86 c 2
 115 412 l 1
 259 412 l 1
 259 87 l 2
 259 -169.487304688 409.340820312 -300 693 -300 c 2
 744 -300 l 2
 1025.88964844 -300 1176 -189.225585938 1176 32 c 2
 1176 601 l 1
 1322 601 l 1
 1322 382 l 2
 1322 220.306640625 1407 150 1566 150 c 2
 1594.2421875 150 l 2
 1610 150 1620.39453125 122.767578125 1620.39453125 82 c 2
 1620.39453125 71 l 2
 1620.39453125 28.228515625 1610 0 1594.0859375 0 c 2
EndSplineSet
EndChar

StartChar: uniFBE8
Encoding: 64488 64488 118
GlifName: uniF_B_E_8
Width: 757
VWidth: 2551
GlyphClass: 2
Flags: HW
AnchorPoint: "Anchor-10" 450 1203 basechar 0
AnchorPoint: "Anchor-7" 467 -159 basechar 0
LayerCount: 2
Fore
SplineSet
-3.84765625 150 m 6
 278 150 l 2
 418 150 495 202.107421875 495 358 c 2
 495 637 l 1
 639 637 l 1
 639 357 l 2
 639 116.150390625 522 0 279 0 c 2
 -3.69140625 0 l 6
 -21 0 -30 28.8388671875 -30 71 c 6
 -30 82 l 6
 -30 123.395507812 -20 150 -3.84765625 150 c 6
EndSplineSet
EndChar

StartChar: uniFBE9
Encoding: 64489 64489 119
GlifName: uniF_B_E_9
Width: 877
VWidth: 2551
GlyphClass: 2
Flags: HW
AnchorPoint: "Anchor-10" 370 1109 basechar 0
AnchorPoint: "Anchor-7" 409 -164 basechar 0
LayerCount: 2
Fore
SplineSet
880.365234375 0 m 6
 861 0 l 2
 716 0 640.8046875 42.5244140625 585.649414062 129.0625 c 2
 573.98046875 147.370117188 l 1
 560.984375 129.978515625 l 2
 496.349609375 43.4833984375 402 0 236 0 c 2
 -3.69140625 0 l 2
 -21 0 -30 28.8388671875 -30 71 c 2
 -30 82 l 2
 -30 123.395507812 -20 150 -3.84765625 150 c 2
 241 150 l 2
 416 150 497 221.081054688 497 360 c 2
 497 603 l 1
 638 603 l 1
 638 360 l 2
 638 223.25 701 150 860 150 c 2
 880.521484375 150 l 6
 897 150 906.673828125 122.767578125 906.673828125 82 c 6
 906.673828125 71 l 6
 906.673828125 28.228515625 897 0 880.365234375 0 c 6
EndSplineSet
EndChar

StartChar: uniFE73
Encoding: 65139 65139 127
GlifName: uniF_E_73
Width: 660
VWidth: 2950
GlyphClass: 2
Flags: HW
AnchorPoint: "Anchor-10" 331 995 basechar 0
AnchorPoint: "Anchor-7" 405 -223 basechar 0
LayerCount: 2
Fore
SplineSet
271 409 m 2
 271 236.646484375 390.237304688 152 606 152 c 2
 660 152 l 1
 660 0 l 1
 596 0 l 2
 269.375976562 0 115 137.748046875 115 412 c 2
 115 419 l 1
 271 419 l 1
 271 409 l 2
EndSplineSet
EndChar

StartChar: uniFE8E
Encoding: 65166 65166 153
GlifName: uniF_E_8E_
Width: 516
VWidth: 2551
GlyphClass: 2
Flags: HW
AnchorPoint: "Anchor-10" 224 1448 basechar 0
AnchorPoint: "Anchor-7" 262 -262 basechar 0
LayerCount: 2
Fore
SplineSet
521.0859375 0 m 6
 476 0 l 2
 267 0 165 115.401367188 165 360 c 2
 165 1303 l 1
 301 1303 l 1
 301 359 l 2
 301 224.842773438 363 150 479 150 c 2
 521.2421875 150 l 6
 538 150 547.39453125 122.767578125 547.39453125 82 c 6
 547.39453125 71 l 6
 547.39453125 28.228515625 538 0 521.0859375 0 c 6
EndSplineSet
EndChar

StartChar: uniFEA2
Encoding: 65186 65186 173
GlifName: uniF_E_A_2
Width: 1359
VWidth: 2551
GlyphClass: 2
Flags: HW
AnchorPoint: "Anchor-7" 743.334 -890.653 basechar 0
AnchorPoint: "Anchor-10" 657.5 1017.5 basechar 0
LayerCount: 2
Fore
SplineSet
1362.36523438 0 m 6
 1312 0 l 2
 1108 0 950.427734375 93.0419921875 940.98046875 278.797851562 c 2
 940.087890625 296.346679688 l 1
 922.896484375 292.711914062 l 2
 599.749023438 224.383789062 257 91.947265625 257 -207 c 0
 257 -444.549804688 446.70703125 -549 802 -549 c 2
 1199 -549 l 1
 1199 -695 l 1
 790 -695 l 2
 379.599609375 -695 115 -543.635742188 115 -210 c 0
 115 127.537109375 385.1484375 343.145507812 929.421875 432.197265625 c 2
 972.127929688 439.18359375 l 1
 934.259765625 460.125976562 l 1
 802.193359375 533.162109375 l 2
 714.87109375 580.885742188 634.33984375 607 554 607 c 0
 461.900390625 607 394.866210938 573.684570312 314.673828125 510.749023438 c 2
 254.717773438 462.614257812 l 1
 159.40234375 569.534179688 l 1
 208.659179688 611.5234375 l 2
 327.43359375 711.4921875 426.546875 760 548 760 c 0
 638.9609375 760 731.276367188 732.984375 826.505859375 678.005859375 c 2
 1015.53710938 568.98828125 l 2
 1080.06835938 531.977539062 1147.35351562 507.986328125 1198 495.9921875 c 1
 1198 339.118164062 l 1
 1156.79589844 333.53125 1115.21679688 327.475585938 1071.58203125 320.34765625 c 2
 1059 318.29296875 l 1
 1059 305.543945312 l 2
 1059 194.446289062 1155 150 1313 150 c 2
 1362.52148438 150 l 6
 1379 150 1388.67382812 122.767578125 1388.67382812 82 c 6
 1388.67382812 71 l 6
 1388.67382812 28.228515625 1379 0 1362.36523438 0 c 6
EndSplineSet
EndChar

StartChar: uniFEA3
Encoding: 65187 65187 174
GlifName: uniF_E_A_3
Width: 1302
VWidth: 2551
GlyphClass: 2
Flags: HW
AnchorPoint: "Anchor-10" 559 1088 basechar 0
AnchorPoint: "Anchor-7" 425 -257 basechar 0
LayerCount: 2
Fore
SplineSet
-3.84765625 150 m 6
 320 150 l 2
 461 150 592.890625 181.8203125 712.647460938 243.55078125 c 1
 1003.38964844 380.428710938 l 1
 1029.96875 392.942382812 l 1
 1004.24609375 407.133789062 l 1
 801.310546875 519.09765625 l 2
 713.842773438 567.916992188 633.21484375 593 553 593 c 0
 460.900390625 593 393.866210938 559.684570312 313.673828125 496.749023438 c 2
 253.717773438 448.614257812 l 1
 158.40234375 555.534179688 l 1
 207.659179688 597.5234375 l 2
 326.43359375 697.4921875 425.546875 746 547 746 c 0
 637.9609375 746 730.276367188 718.984375 825.505859375 664.005859375 c 2
 1014.53710938 554.98828125 l 2
 1079.06835938 517.977539062 1146.35351562 493.986328125 1197 481.9921875 c 1
 1197 323.231445312 l 1
 787.010742188 116.274414062 l 1
 644.771484375 38.240234375 491 0 322 0 c 2
 -3.69140625 0 l 6
 -21 0 -30 28.8388671875 -30 71 c 6
 -30 82 l 6
 -30 123.395507812 -20 150 -3.84765625 150 c 6
EndSplineSet
EndChar

StartChar: uniFEA4
Encoding: 65188 65188 175
GlifName: uniF_E_A_4
Width: 1349
VWidth: 2551
GlyphClass: 2
Flags: HW
AnchorPoint: "Anchor-7" 425 -257 basechar 0
AnchorPoint: "Anchor-10" 559 1088 basechar 0
LayerCount: 2
Fore
SplineSet
1353.0859375 0 m 6
 1236 0 l 2
 1070 0 989.112304688 72.5498046875 925.75390625 174.895507812 c 2
 918.325195312 186.895507812 l 1
 905.895507812 180.2109375 l 1
 786.83984375 116.180664062 l 2
 644.963867188 38.345703125 491 0 322 0 c 2
 -3.69140625 0 l 2
 -21 0 -30 28.8388671875 -30 71 c 2
 -30 82 l 2
 -30 123.395507812 -20 150 -3.84765625 150 c 2
 320 150 l 2
 461 150 592.912109375 180.825195312 712.690429688 243.5703125 c 1
 1003.38964844 380.428710938 l 1
 1029.96875 392.942382812 l 1
 1004.24609375 407.133789062 l 1
 801.310546875 519.09765625 l 2
 713.842773438 567.916992188 633.21484375 593 553 593 c 0
 460.900390625 593 393.866210938 559.684570312 313.673828125 496.749023438 c 2
 253.717773438 448.614257812 l 1
 158.40234375 555.534179688 l 1
 207.659179688 597.5234375 l 2
 326.43359375 697.4921875 425.546875 746 547 746 c 0
 637.9609375 746 730.276367188 718.984375 825.505859375 664.005859375 c 2
 1014.53710938 554.98828125 l 2
 1079.06835938 517.977539062 1146.35351562 493.986328125 1197 481.9921875 c 1
 1197 323.475585938 l 1
 1041.42382812 249.482421875 l 1
 1039.29199219 248.416015625 l 1
 1020.67773438 239.109375 l 1
 1035.39355469 224.393554688 l 2
 1087.828125 171.958007812 1152 150 1233 150 c 2
 1353.2421875 150 l 6
 1370 150 1379.39453125 122.767578125 1379.39453125 82 c 6
 1379.39453125 71 l 6
 1379.39453125 28.228515625 1370 0 1353.0859375 0 c 6
EndSplineSet
EndChar

StartChar: uniFEA9
Encoding: 65193 65193 180
GlifName: uniF_E_A_9
Width: 1004
VWidth: 2551
GlyphClass: 2
Flags: HW
AnchorPoint: "Anchor-7" 424 -225 basechar 0
AnchorPoint: "Anchor-10" 448 1166 basechar 0
LayerCount: 2
Fore
SplineSet
352 809 m 5
 473 945 l 1029
464 0 m 6
 100 0 l 5
 100 180 l 5
 465 180 l 1030
EndSplineSet
Refer: 23 1583 N 1 0 0 1 0 0 2
EndChar

StartChar: uniFEAA
Encoding: 65194 65194 181
GlifName: uniF_E_A_A_
Width: 1204
VWidth: 2551
GlyphClass: 2
Flags: HW
AnchorPoint: "Anchor-7" 424 -240 basechar 0
AnchorPoint: "Anchor-10" 448 1151 basechar 0
LayerCount: 2
Fore
SplineSet
1207.21777344 0 m 6
 1193 0 l 2
 1062 0 997.135742188 67.4658203125 888.995117188 175.606445312 c 2
 874.186523438 190.416015625 l 1
 864.932617188 171.627929688 l 2
 815.860351562 71.9990234375 687.78515625 0 464 0 c 2
 115 0 l 1
 115 150 l 1
 465 150 l 2
 653.045898438 150 744.297851562 196.833007812 744.297851562 285.186523438 c 0
 744.297851562 343.24609375 704.545898438 409.711914062 643.333984375 480.825195312 c 2
 371.962890625 793.87109375 l 1
 472.749023438 907.15234375 l 1
 907.637695312 396.208007812 l 2
 1098.67089844 174.540039062 1127 150 1200 150 c 2
 1207.37402344 150 l 6
 1224 150 1233.52636719 122.767578125 1233.52636719 82 c 6
 1233.52636719 71 l 6
 1233.52636719 28.228515625 1224 0 1207.21777344 0 c 6
EndSplineSet
EndChar

StartChar: uniFEAE
Encoding: 65198 65198 185
GlifName: uniF_E_A_E_
Width: 883
VWidth: 2551
GlyphClass: 2
Flags: HW
AnchorPoint: "Anchor-10" 511 938 basechar 0
AnchorPoint: "Anchor-7" 297 -634 basechar 0
LayerCount: 2
Fore
SplineSet
886.365234375 0 m 2
 872 0 l 2
 730.045027262 0 691.383789062 31.5439453125 643 102.783203125 c 5
 643 64 l 1
 643 58 l 2
 643 -273.071289062 453.270507812 -462.088867188 85.7919921875 -467.000976562 c 2
 29 -467.790039062 l 1
 29 -323 l 1
 84 -323 l 2
 349.224609375 -323 497 -188.24609375 497 57 c 2
 497 576 l 1
 642 576 l 1
 642 368 l 2
 642 225.256835938 723 150 872 150 c 2
 886.521484375 150 l 2
 903 150 912.673828125 122.767578125 912.673828125 82 c 2
 912.673828125 71 l 2
 912.673828125 28.228515625 903 0 886.365234375 0 c 2
EndSplineSet
PairPos2: "'kern' Horizontal Kerning lookup 15-1" uniFEE7 dx=-178 dy=0 dh=-178 dv=0 dx=0 dy=0 dh=0 dv=0
PairPos2: "'kern' Horizontal Kerning lookup 15-2" uni0698 dx=-40 dy=0 dh=-40 dv=0 dx=0 dy=0 dh=0 dv=0
PairPos2: "'kern' Horizontal Kerning lookup 15-2" uni0648 dx=-30 dy=0 dh=-30 dv=0 dx=0 dy=0 dh=0 dv=0
PairPos2: "'kern' Horizontal Kerning lookup 15-2" uni0624 dx=-30 dy=0 dh=-30 dv=0 dx=0 dy=0 dh=0 dv=0
PairPos2: "'kern' Horizontal Kerning lookup 15-2" uni0632 dx=-30 dy=0 dh=-30 dv=0 dx=0 dy=0 dh=0 dv=0
PairPos2: "'kern' Horizontal Kerning lookup 15-2" uni0631 dx=-30 dy=0 dh=-30 dv=0 dx=0 dy=0 dh=0 dv=0
PairPos2: "'kern' Horizontal Kerning lookup 15-2" uniFB90 dx=-180 dy=0 dh=-180 dv=0 dx=0 dy=0 dh=0 dv=0
PairPos2: "'kern' Horizontal Kerning lookup 15-2" uniFB8E dx=-180 dy=0 dh=-180 dv=0 dx=0 dy=0 dh=0 dv=0
PairPos2: "'kern' Horizontal Kerning lookup 15-2" uni06A9 dx=-180 dy=0 dh=-180 dv=0 dx=0 dy=0 dh=0 dv=0
PairPos2: "'kern' Horizontal Kerning lookup 15-2" uniFEEB dx=-178 dy=0 dh=-178 dv=0 dx=0 dy=0 dh=0 dv=0
PairPos2: "'kern' Horizontal Kerning lookup 15-2" uni0647 dx=-178 dy=0 dh=-178 dv=0 dx=0 dy=0 dh=0 dv=0
PairPos2: "'kern' Horizontal Kerning lookup 15-2" uniFEE3 dx=-178 dy=0 dh=-178 dv=0 dx=0 dy=0 dh=0 dv=0
PairPos2: "'kern' Horizontal Kerning lookup 15-2" uni0645 dx=-178 dy=0 dh=-178 dv=0 dx=0 dy=0 dh=0 dv=0
PairPos2: "'kern' Horizontal Kerning lookup 15-2" uniFEFB dx=-143 dy=0 dh=-143 dv=0 dx=0 dy=0 dh=0 dv=0
PairPos2: "'kern' Horizontal Kerning lookup 15-2" uniFEDF dx=-143 dy=0 dh=-143 dv=0 dx=0 dy=0 dh=0 dv=0
PairPos2: "'kern' Horizontal Kerning lookup 15-2" uni0644 dx=-60 dy=0 dh=-60 dv=0 dx=0 dy=0 dh=0 dv=0
PairPos2: "'kern' Horizontal Kerning lookup 15-2" uniFEDB dx=-180 dy=0 dh=-180 dv=0 dx=0 dy=0 dh=0 dv=0
PairPos2: "'kern' Horizontal Kerning lookup 15-2" uni0643 dx=-143 dy=0 dh=-143 dv=0 dx=0 dy=0 dh=0 dv=0
PairPos2: "'kern' Horizontal Kerning lookup 15-2" uniFED7 dx=-178 dy=0 dh=-178 dv=0 dx=0 dy=0 dh=0 dv=0
PairPos2: "'kern' Horizontal Kerning lookup 15-2" uniFED3 dx=-178 dy=0 dh=-178 dv=0 dx=0 dy=0 dh=0 dv=0
PairPos2: "'kern' Horizontal Kerning lookup 15-2" uni0641 dx=-178 dy=0 dh=-178 dv=0 dx=0 dy=0 dh=0 dv=0
PairPos2: "'kern' Horizontal Kerning lookup 15-2" uniFECF dx=-178 dy=0 dh=-178 dv=0 dx=0 dy=0 dh=0 dv=0
PairPos2: "'kern' Horizontal Kerning lookup 15-2" uniFECB dx=-178 dy=0 dh=-178 dv=0 dx=0 dy=0 dh=0 dv=0
PairPos2: "'kern' Horizontal Kerning lookup 15-2" uniFEC7 dx=-178 dy=0 dh=-178 dv=0 dx=0 dy=0 dh=0 dv=0
PairPos2: "'kern' Horizontal Kerning lookup 15-2" uni0638 dx=-178 dy=0 dh=-178 dv=0 dx=0 dy=0 dh=0 dv=0
PairPos2: "'kern' Horizontal Kerning lookup 15-2" uniFEC3 dx=-178 dy=0 dh=-178 dv=0 dx=0 dy=0 dh=0 dv=0
PairPos2: "'kern' Horizontal Kerning lookup 15-2" uni0637 dx=-178 dy=0 dh=-178 dv=0 dx=0 dy=0 dh=0 dv=0
PairPos2: "'kern' Horizontal Kerning lookup 15-2" uniFEBF dx=-178 dy=0 dh=-178 dv=0 dx=0 dy=0 dh=0 dv=0
PairPos2: "'kern' Horizontal Kerning lookup 15-2" uni0636 dx=-178 dy=0 dh=-178 dv=0 dx=0 dy=0 dh=0 dv=0
PairPos2: "'kern' Horizontal Kerning lookup 15-2" uniFEBB dx=-178 dy=0 dh=-178 dv=0 dx=0 dy=0 dh=0 dv=0
PairPos2: "'kern' Horizontal Kerning lookup 15-2" uni0635 dx=-178 dy=0 dh=-178 dv=0 dx=0 dy=0 dh=0 dv=0
PairPos2: "'kern' Horizontal Kerning lookup 15-2" uniFEB7 dx=-178 dy=0 dh=-178 dv=0 dx=0 dy=0 dh=0 dv=0
PairPos2: "'kern' Horizontal Kerning lookup 15-2" uni0634 dx=-178 dy=0 dh=-178 dv=0 dx=0 dy=0 dh=0 dv=0
PairPos2: "'kern' Horizontal Kerning lookup 15-2" uniFEB3 dx=-178 dy=0 dh=-178 dv=0 dx=0 dy=0 dh=0 dv=0
PairPos2: "'kern' Horizontal Kerning lookup 15-2" uni0633 dx=-178 dy=0 dh=-178 dv=0 dx=0 dy=0 dh=0 dv=0
PairPos2: "'kern' Horizontal Kerning lookup 15-2" uni0630 dx=-178 dy=0 dh=-178 dv=0 dx=0 dy=0 dh=0 dv=0
PairPos2: "'kern' Horizontal Kerning lookup 15-2" uni062F dx=-178 dy=0 dh=-178 dv=0 dx=0 dy=0 dh=0 dv=0
PairPos2: "'kern' Horizontal Kerning lookup 15-2" uniFEA7 dx=-178 dy=0 dh=-178 dv=0 dx=0 dy=0 dh=0 dv=0
PairPos2: "'kern' Horizontal Kerning lookup 15-2" uniFEA3 dx=-178 dy=0 dh=-178 dv=0 dx=0 dy=0 dh=0 dv=0
PairPos2: "'kern' Horizontal Kerning lookup 15-2" uniFE9F dx=-178 dy=0 dh=-178 dv=0 dx=0 dy=0 dh=0 dv=0
PairPos2: "'kern' Horizontal Kerning lookup 15-2" uniFE9B dx=-178 dy=0 dh=-178 dv=0 dx=0 dy=0 dh=0 dv=0
PairPos2: "'kern' Horizontal Kerning lookup 15-2" uni062B dx=-178 dy=0 dh=-178 dv=0 dx=0 dy=0 dh=0 dv=0
PairPos2: "'kern' Horizontal Kerning lookup 15-2" uniFE97 dx=-178 dy=0 dh=-178 dv=0 dx=0 dy=0 dh=0 dv=0
PairPos2: "'kern' Horizontal Kerning lookup 15-2" uni062A dx=-178 dy=0 dh=-178 dv=0 dx=0 dy=0 dh=0 dv=0
PairPos2: "'kern' Horizontal Kerning lookup 15-2" uni0629 dx=-178 dy=0 dh=-178 dv=0 dx=0 dy=0 dh=0 dv=0
PairPos2: "'kern' Horizontal Kerning lookup 15-2" uni0628 dx=-178 dy=0 dh=-178 dv=0 dx=0 dy=0 dh=0 dv=0
PairPos2: "'kern' Horizontal Kerning lookup 15-2" uni0627 dx=-163 dy=0 dh=-163 dv=0 dx=0 dy=0 dh=0 dv=0
PairPos2: "'kern' Horizontal Kerning lookup 15-2" uni0623 dx=-163 dy=0 dh=-163 dv=0 dx=0 dy=0 dh=0 dv=0
PairPos2: "'kern' Horizontal Kerning lookup 15-2" uni0622 dx=-163 dy=0 dh=-163 dv=0 dx=0 dy=0 dh=0 dv=0
PairPos2: "'kern' Horizontal Kerning lookup 15-2" uni0621 dx=-178 dy=0 dh=-178 dv=0 dx=0 dy=0 dh=0 dv=0
PairPos2: "'kern' Horizontal Kerning lookup 15-2" uniFB94 dx=-180 dy=0 dh=-180 dv=0 dx=0 dy=0 dh=0 dv=0
PairPos2: "'kern' Horizontal Kerning lookup 15-2" uniFB92 dx=-180 dy=0 dh=-180 dv=0 dx=0 dy=0 dh=0 dv=0
PairPos2: "'kern' Horizontal Kerning lookup 15-2" uni06AF dx=-180 dy=0 dh=-180 dv=0 dx=0 dy=0 dh=0 dv=0
PairPos2: "'kern' Horizontal Kerning lookup 15-2" uni067E dx=-178 dy=0 dh=-178 dv=0 dx=0 dy=0 dh=0 dv=0
PairPos2: "'kern' Horizontal Kerning lookup 15-2" uni0640 dx=-178 dy=0 dh=-178 dv=0 dx=0 dy=0 dh=0 dv=0
PairPos2: "'kern' Horizontal Kerning lookup 15-2" uniFE8B dx=-178 dy=0 dh=-178 dv=0 dx=0 dy=0 dh=0 dv=0
PairPos2: "'kern' Horizontal Kerning lookup 15-2" uniFB7C dx=-120 dy=0 dh=-120 dv=0 dx=0 dy=0 dh=0 dv=0
PairPos2: "'kern' Horizontal Kerning lookup 15-2" uniFE91 dx=-60 dy=0 dh=-60 dv=0 dx=0 dy=0 dh=0 dv=0
PairPos2: "'kern' Horizontal Kerning lookup 15-5" uni06C0 dx=-178 dy=0 dh=-178 dv=0 dx=0 dy=0 dh=0 dv=0
EndChar

StartChar: uniFEB2
Encoding: 65202 65202 189
GlifName: uniF_E_B_2
Width: 2619
VWidth: 2551
GlyphClass: 2
Flags: HW
AnchorPoint: "Anchor-10" 1775 1049 basechar 0
AnchorPoint: "Anchor-7" 688 -683 basechar 0
LayerCount: 2
Fore
SplineSet
2623.98535156 0 m 6
 2605 0 l 2
 2458 0 2365.61621094 45.1162109375 2307.48046875 132.3203125 c 2
 2293.67675781 153.026367188 l 1
 2281.81445312 131.150390625 l 2
 2231.81933594 38.9599609375 2176.51757812 0 2063 0 c 0
 1937.65234375 0 1863.109375 44.3212890625 1808.82324219 133.78125 c 2
 1795.49902344 155.739257812 l 1
 1782.921875 133.345703125 l 2
 1731.91992188 42.537109375 1645.80175781 0 1521.08886719 0 c 0
 1443.46191406 0.923828125 1377.34863281 25.201171875 1337 79 c 2
 1310 115 l 1
 1310 70 l 1
 1310 37 l 2
 1310 -289.181640625 1124.703125 -449 744 -449 c 2
 693 -449 l 2
 305.138671875 -449 115 -274.026367188 115 86 c 2
 115 412 l 1
 259 412 l 1
 259 87 l 2
 259 -169.487304688 409.340820312 -300 693 -300 c 2
 744 -300 l 2
 1025.88964844 -300 1176 -189.225585938 1176 32 c 2
 1176 601 l 1
 1322 601 l 1
 1322 382 l 2
 1322 229.686523438 1393.89160156 149.978515625 1527.19921875 149.978515625 c 0
 1651.09179688 149.978515625 1720 224.651367188 1720 357.942382812 c 2
 1720.94238281 604 l 1
 1861.05761719 604 l 1
 1862 359.883789062 l 2
 1863.05371094 224.032226562 1930.85449219 150.989257812 2059.78125 150.9765625 c 0
 2178.82910156 150.9765625 2225 227.518554688 2225 358 c 2
 2225 604 l 1
 2358.05761719 604 l 1
 2359 360.884765625 l 2
 2360.06542969 222.48046875 2443 150 2597 150 c 2
 2624.14160156 150 l 6
 2641 150 2650.29394531 122.767578125 2650.29394531 82 c 6
 2650.29394531 71 l 6
 2650.29394531 28.228515625 2641 0 2623.98535156 0 c 6
EndSplineSet
EndChar

StartChar: uniFEB3
Encoding: 65203 65203 190
GlifName: uniF_E_B_3
Width: 1640
VWidth: 2551
GlyphClass: 2
Flags: HW
AnchorPoint: "Anchor-10" 925 1065 basechar 0
AnchorPoint: "Anchor-7" 846 -256 basechar 0
LayerCount: 2
Fore
SplineSet
-3.84765625 150 m 6
 90 150 l 2
 250 150 342 220.435546875 342 359 c 2
 342 604 l 1
 483.057617188 604 l 1
 484 356.881835938 l 2
 485.05859375 222.461914062 554.375976562 149.98828125 685.696289062 149.98828125 c 0
 810.89453125 149.98828125 881 223.543945312 881 357.942382812 c 2
 881.942382812 604 l 1
 1022.05761719 604 l 1
 1023 359.883789062 l 2
 1024.05273438 224.090820312 1091.76855469 150.98828125 1219.27539062 150.98828125 c 0
 1326.85351562 150.98828125 1380 225.026367188 1380 356 c 2
 1380 636 l 1
 1525 636 l 1
 1525 348 l 2
 1525 121.71484375 1415.96777344 0 1225 0 c 0
 1098.61914062 0 1024.09960938 44.3359375 969.823242188 133.78125 c 2
 956.499023438 155.740234375 l 1
 943.921875 133.345703125 l 2
 892.912109375 42.5244140625 806.87890625 0 682 0 c 0
 569.90625 0 489.163085938 41.6640625 429.610351562 134.122070312 c 2
 417.215820312 153.365234375 l 1
 404.51953125 134.3203125 l 2
 346.255859375 46.92578125 253 0 89 0 c 2
 -3.69140625 0 l 6
 -21 0 -30 28.8388671875 -30 71 c 6
 -30 82 l 6
 -30 123.395507812 -20 150 -3.84765625 150 c 6
EndSplineSet
EndChar

StartChar: uniFEB4
Encoding: 65204 65204 191
GlifName: uniF_E_B_4
Width: 1781
VWidth: 2546
GlyphClass: 2
Flags: HW
AnchorPoint: "Anchor-7" 846 -256 basechar 0
AnchorPoint: "Anchor-10" 925 1065 basechar 0
LayerCount: 2
Fore
SplineSet
1785.98535156 0 m 6
 1767 0 l 2
 1620 0 1527.61621094 45.1162109375 1469.48046875 132.3203125 c 2
 1455.67675781 153.026367188 l 1
 1443.81445312 131.150390625 l 2
 1393.81933594 38.9599609375 1338.51757812 0 1225 0 c 0
 1098.61914062 0 1024.10058594 44.3359375 969.823242188 133.78125 c 2
 956.499023438 155.739257812 l 1
 943.921875 133.345703125 l 2
 892.913085938 42.5244140625 806.87890625 0 682 0 c 0
 569.905273438 0 489.163085938 41.6630859375 429.610351562 134.122070312 c 2
 417.215820312 153.365234375 l 1
 404.51953125 134.3203125 l 2
 346.255859375 46.92578125 253 0 89 0 c 2
 -4.69140625 0 l 2
 -22 0 -31 28.8388671875 -31 71 c 2
 -31 82 l 2
 -31 123.395507812 -21 150 -4.84765625 150 c 2
 90 150 l 2
 250 150 342 220.435546875 342 359 c 2
 342 604 l 1
 483.057617188 604 l 1
 484 356.881835938 l 2
 485.05859375 222.462890625 554.375976562 149.98828125 685.696289062 149.98828125 c 0
 810.89453125 149.98828125 881 223.543945312 881 357.942382812 c 2
 881.942382812 604 l 1
 1022.05761719 604 l 1
 1023 359.883789062 l 2
 1024.06640625 222.411132812 1092.7734375 150.9765625 1221.78125 150.9765625 c 0
 1331.125 150.9765625 1382 227.337890625 1382 358 c 2
 1382 604 l 1
 1520.05761719 604 l 1
 1521 360.884765625 l 2
 1522.06542969 222.48046875 1605 150 1759 150 c 2
 1786.14160156 150 l 6
 1803 150 1812.29394531 122.767578125 1812.29394531 82 c 6
 1812.29394531 71 l 6
 1812.29394531 28.228515625 1803 0 1785.98535156 0 c 6
EndSplineSet
EndChar

StartChar: uniFEBA
Encoding: 65210 65210 197
GlifName: uniF_E_B_A_
Width: 2561
VWidth: 2551
GlyphClass: 2
Flags: HW
AnchorPoint: "Anchor-10" 1977 1133 basechar 0
AnchorPoint: "Anchor-7" 688 -683 basechar 0
LayerCount: 2
Fore
SplineSet
2564.52246094 0 m 2
 2537 0 l 2
 2407 0 2324.0546875 19.1591796875 2269.60644531 73.6064453125 c 2
 2260.75488281 82.458984375 l 1
 2250.46191406 75.3330078125 l 2
 2175.76269531 23.6181640625 2080.16308594 0 1958 0 c 2
 1618 0 l 2
 1461.53808594 0 1371.24609375 30.1064453125 1337.44726562 80.3701171875 c 2
 1310 121.189453125 l 1
 1310 72 l 1
 1310 37 l 2
 1310 -289.181640625 1124.703125 -449 744 -449 c 2
 693 -449 l 2
 305.138671875 -449 115 -274.026367188 115 86 c 2
 115 412 l 1
 259 412 l 1
 259 87 l 2
 259 -169.487304688 409.340820312 -300 693 -300 c 2
 744 -300 l 2
 1025.88964844 -300 1176 -189.225585938 1176 32 c 2
 1176 601 l 1
 1322 601 l 1
 1322 402 l 2
 1322 264.9453125 1366.90136719 186.91796875 1441.2890625 173.247070312 c 2
 1452.89257812 171.114257812 l 1
 1457.69824219 181.888671875 l 2
 1623.30566406 553.119140625 1776.96679688 745 2015 745 c 0
 2224.04785156 745 2390 567.40234375 2390 352 c 0
 2390 281.341796875 2373.63085938 222.110351562 2345.00683594 172.49609375 c 2
 2332.02929688 150 l 1
 2358 150 l 1
 2564.67871094 150 l 6
 2581 150 2590.83105469 122.767578125 2590.83105469 82 c 2
 2590.83105469 71 l 2
 2590.83105469 28.228515625 2581 0 2564.52246094 0 c 2
2004 592 m 0
 1857.93066406 592 1727.34472656 445.208007812 1603.33398438 171.184570312 c 2
 1593.74707031 150 l 1
 1617 150 l 1
 1978 150 l 2
 2129.19726562 150 2245 197.1171875 2245 332 c 0
 2245 479.408203125 2136.03320312 592 2004 592 c 0
EndSplineSet
EndChar

StartChar: uniFEBB
Encoding: 65211 65211 198
GlifName: uniF_E_B_B_
Width: 1658
VWidth: 2551
GlyphClass: 2
Flags: HW
AnchorPoint: "Anchor-10" 1127 1133 basechar 0
AnchorPoint: "Anchor-7" 674 -265 basechar 0
LayerCount: 2
Fore
SplineSet
-3.84765625 150 m 6
 71 150 l 2
 223 150 310 225.756835938 310 371 c 2
 310 603 l 1
 448.059570312 603 l 1
 449 366.940429688 l 2
 449.484375 245.259765625 503.532226562 173 597 173 c 2
 606.733398438 173 l 1
 610.698242188 181.888671875 l 2
 776.295898438 553.095703125 930.970703125 745 1168 745 c 0
 1377.3671875 745 1543 566.94921875 1543 352 c 0
 1543 119.578125 1371.48632812 0 1111 0 c 2
 771 0 l 2
 570.154296875 0 452.408203125 45.28125 403.92578125 127.611328125 c 2
 403.712890625 127.97265625 l 1
 403.48046875 128.3203125 l 1
 401.48046875 131.3203125 l 1
 389 150.041992188 l 1
 376.51953125 131.3203125 l 2
 319.293945312 45.4814453125 231 0 78 0 c 2
 -3.69140625 0 l 6
 -21 0 -30 28.8388671875 -30 71 c 6
 -30 82 l 6
 -30 123.395507812 -20 150 -3.84765625 150 c 6
1398 332 m 0
 1398 479.89453125 1288.9453125 592 1157 592 c 0
 1011.92285156 592 880.359375 445.240234375 756.333984375 171.184570312 c 2
 746.747070312 150 l 1
 770 150 l 1
 1131 150 l 2
 1282.12695312 150 1398 196.905273438 1398 332 c 0
EndSplineSet
EndChar

StartChar: uniFEBC
Encoding: 65212 65212 199
GlifName: uniF_E_B_C_
Width: 1713
VWidth: 2551
GlyphClass: 2
Flags: HW
AnchorPoint: "Anchor-10" 1127 1133 basechar 0
AnchorPoint: "Anchor-7" 674 -265 basechar 0
LayerCount: 2
Fore
SplineSet
1717.52246094 0 m 6
 1690 0 l 2
 1560 0 1477.0546875 19.1591796875 1422.60644531 73.6064453125 c 2
 1413.75488281 82.458984375 l 1
 1403.46191406 75.3330078125 l 2
 1328.76269531 23.6181640625 1233.16308594 0 1111 0 c 2
 771 0 l 2
 570.154296875 0 452.408203125 45.28125 403.92578125 127.611328125 c 2
 403.712890625 127.97265625 l 1
 403.48046875 128.3203125 l 1
 401.48046875 131.3203125 l 1
 388.930664062 150.145507812 l 1
 376.477539062 131.256835938 l 2
 319.704101562 45.150390625 231 0 78 0 c 2
 -3.69140625 0 l 2
 -21 0 -30 28.8388671875 -30 71 c 2
 -30 82 l 2
 -30 123.395507812 -20 150 -3.84765625 150 c 2
 71 150 l 2
 223 150 310 225.756835938 310 371 c 2
 310 603 l 1
 448.059570312 603 l 1
 449 367 l 2
 449 244.90234375 503.467773438 173 597 173 c 2
 606.721679688 173 l 1
 610.692382812 181.874023438 l 2
 776.755859375 553.016601562 931.291015625 745 1168 745 c 0
 1377.04785156 745 1543 567.40234375 1543 352 c 0
 1543 281.341796875 1526.63085938 222.110351562 1498.00683594 172.49609375 c 2
 1485.02929688 150 l 1
 1511 150 l 1
 1717.67871094 150 l 6
 1734 150 1743.83105469 122.767578125 1743.83105469 82 c 6
 1743.83105469 71 l 6
 1743.83105469 28.228515625 1734 0 1717.52246094 0 c 6
1398 332 m 0
 1398 479.408203125 1289.03320312 592 1157 592 c 0
 1011.92285156 592 880.359375 445.240234375 756.333984375 171.184570312 c 2
 746.747070312 150 l 1
 770 150 l 1
 1131 150 l 2
 1282.19726562 150 1398 197.1171875 1398 332 c 0
EndSplineSet
EndChar

StartChar: uniFEC2
Encoding: 65218 65218 205
GlifName: uniF_E_C_2
Width: 1414
VWidth: 2551
GlyphClass: 2
Flags: HW
AnchorPoint: "Anchor-10" 447 1448 basechar 0
AnchorPoint: "Anchor-7" 610 -253 basechar 0
LayerCount: 2
Fore
SplineSet
1417.52246094 0 m 6
 1390 0 l 2
 1260 0 1177.0546875 19.1591796875 1122.60644531 73.6064453125 c 2
 1113.75488281 82.458984375 l 1
 1103.46191406 75.3330078125 l 2
 1028.76269531 23.6181640625 933.163085938 0 811 0 c 2
 115 0 l 1
 115 150 l 1
 289 150 l 1
 299.037109375 150 l 1
 302.865234375 159.27734375 l 2
 328.50390625 221.40234375 355.232421875 269.923828125 382.416015625 324.291992188 c 2
 384 327.458984375 l 1
 384 331 l 1
 384 1305 l 1
 520 1305 l 1
 520 584 l 1
 520 544.581054688 l 1
 546.205078125 574.028320312 l 2
 641.694335938 681.330078125 745.71875 745 868 745 c 0
 1077.04785156 745 1243 567.40234375 1243 352 c 0
 1243 281.341796875 1226.63085938 222.110351562 1198.00683594 172.49609375 c 2
 1185.02929688 150 l 1
 1211 150 l 1
 1417.67871094 150 l 6
 1434 150 1443.83105469 122.767578125 1443.83105469 82 c 6
 1443.83105469 71 l 6
 1443.83105469 28.228515625 1434 0 1417.52246094 0 c 6
857 592 m 0
 710.930664062 592 580.344726562 445.208007812 456.333984375 171.184570312 c 2
 446.747070312 150 l 1
 470 150 l 1
 831 150 l 2
 982.197265625 150 1098 197.1171875 1098 332 c 0
 1098 479.408203125 989.033203125 592 857 592 c 0
EndSplineSet
EndChar

StartChar: uniFEC3
Encoding: 65219 65219 206
GlifName: uniF_E_C_3
Width: 1230
VWidth: 2551
GlyphClass: 2
Flags: HW
AnchorPoint: "Anchor-10" 327 1448 basechar 0
AnchorPoint: "Anchor-7" 480 -253 basechar 0
LayerCount: 2
Fore
SplineSet
-3.84765625 150 m 2
 161 150 l 5
 171.037109375 150 l 5
 174.865234375 159.27734375 l 6
 200.50390625 221.40234375 227.232421875 269.923828125 254.416015625 324.291992188 c 6
 256 327.458984375 l 5
 256 331 l 5
 256 1305 l 5
 392 1305 l 5
 392 584 l 5
 392 544.581054688 l 5
 418.205078125 574.028320312 l 6
 513.6640625 681.295898438 618.728515625 745 740 745 c 4
 949.047851562 745 1115 567.40234375 1115 352 c 4
 1115 119.405273438 943 0 683 0 c 6
 -3.69140625 0 l 2
 -21 0 -30 28.8388671875 -30 71 c 2
 -30 82 l 2
 -30 123.395507812 -20 150 -3.84765625 150 c 2
970 332 m 4
 970 479.408203125 861.033203125 592 729 592 c 4
 583.922851562 592 452.359375 445.240234375 328.333984375 171.184570312 c 6
 318.747070312 150 l 5
 342 150 l 5
 703 150 l 6
 854.197265625 150 970 197.1171875 970 332 c 4
EndSplineSet
EndChar

StartChar: uniFEC4
Encoding: 65220 65220 207
GlifName: uniF_E_C_4
Width: 1286
VWidth: 2551
GlyphClass: 2
Flags: HW
AnchorPoint: "Anchor-10" 327 1448 basechar 0
AnchorPoint: "Anchor-7" 480 -253 basechar 0
LayerCount: 2
Fore
SplineSet
1289.52246094 0 m 6
 1262 0 l 6
 1132 0 1049.0546875 19.1591796875 994.606445312 73.6064453125 c 6
 985.754882812 82.458984375 l 5
 975.461914062 75.3330078125 l 6
 900.762695312 23.6181640625 805 0 683 0 c 6
 -3.69140625 0 l 2
 -21 0 -30 28.8388671875 -30 71 c 2
 -30 82 l 2
 -30 123.395507812 -20 150 -3.84765625 150 c 2
 161 150 l 5
 171.037109375 150 l 5
 174.865234375 159.27734375 l 6
 200.50390625 221.40234375 227.232421875 269.923828125 254.416015625 324.291992188 c 6
 256 327.458984375 l 5
 256 331 l 5
 256 1305 l 5
 392 1305 l 5
 392 584 l 5
 392 544.581054688 l 5
 418.205078125 574.028320312 l 6
 513.694335938 681.330078125 617.71875 745 740 745 c 4
 949.047851562 745 1115 567.40234375 1115 352 c 4
 1115 281.341796875 1098.63085938 222.110351562 1070.00683594 172.49609375 c 6
 1057.02929688 150 l 5
 1083 150 l 5
 1289.67871094 150 l 6
 1306 150 1315.83105469 122.767578125 1315.83105469 82 c 6
 1315.83105469 71 l 6
 1315.83105469 28.228515625 1306 0 1289.52246094 0 c 6
729 592 m 4
 582.930664062 592 452.344726562 445.208007812 328.333984375 171.184570312 c 6
 318.747070312 150 l 5
 342 150 l 5
 703 150 l 6
 854.197265625 150 970 197.1171875 970 332 c 4
 970 479.408203125 861.033203125 592 729 592 c 4
EndSplineSet
EndChar

StartChar: uniFECA
Encoding: 65226 65226 213
GlifName: uniF_E_C_A_
Width: 1225
VWidth: 2551
GlyphClass: 2
Flags: HW
AnchorPoint: "Anchor-7" 713 -913 basechar 0
AnchorPoint: "Anchor-10" 654 1097 basechar 0
LayerCount: 2
Fore
SplineSet
1229.08789062 0 m 6
 1126 0 l 2
 941 0 801.43359375 48.6865234375 646.05859375 147.651367188 c 2
 639.0390625 152.123046875 l 1
 631.530273438 148.533203125 l 2
 379.447265625 28.0146484375 257 -111.71484375 257 -233 c 0
 257 -467.049804688 437.813476562 -549 792 -549 c 2
 1099 -549 l 1
 1099 -695 l 1
 780 -695 l 2
 367.9453125 -695 115 -562.784179688 115 -240 c 0
 115 -57.0654296875 274.727539062 110.698242188 492.345703125 232.921875 c 2
 515.321289062 245.826171875 l 1
 492.495117188 258.993164062 l 2
 489.880859375 260.500976562 212 427.158203125 212 530 c 0
 212 695.486328125 397.791015625 764 662 764 c 0
 926.174804688 764 1111 695.51953125 1111 530 c 0
 1111 427.61328125 802.28125 241.604492188 799.470703125 239.973632812 c 2
 773.215820312 224.737304688 l 1
 801.268554688 213.137695312 l 2
 906.228515625 169.741210938 983 150 1137 150 c 2
 1229.24414062 150 l 6
 1245 150 1255.39648438 122.767578125 1255.39648438 82 c 6
 1255.39648438 71 l 6
 1255.39648438 28.228515625 1245 0 1229.08789062 0 c 6
668.415039062 310.9609375 m 1
 668.415039062 310.9609375 961 465.609375 961 529 c 0
 961 599.234375 816.58984375 624 660 624 c 0
 506.388671875 624 361 599.254882812 361 529 c 0
 361 465.403320312 653.584960938 310.9609375 653.584960938 310.9609375 c 1
 661 306.744140625 l 1
 668.415039062 310.9609375 l 1
EndSplineSet
EndChar

StartChar: uniFECB
Encoding: 65227 65227 214
GlifName: uniF_E_C_B_
Width: 1020
VWidth: 2551
GlyphClass: 2
Flags: HW
AnchorPoint: "Anchor-10" 527 1237 basechar 0
AnchorPoint: "Anchor-7" 461 -261 basechar 0
LayerCount: 2
Fore
SplineSet
-3.84765625 150 m 6
 304 150 l 1
 343.669921875 150 l 1
 313.924804688 176.247070312 l 2
 230.879882812 249.525390625 183 330.401367188 183 436 c 0
 183 657.1875 340.651367188 816 564 816 c 0
 686.705078125 816 785.704101562 770.311523438 862.921875 680.237304688 c 1
 804.033203125 572.947265625 l 1
 735.947265625 632.262695312 658.318359375 662 569 662 c 0
 442.471679688 662 328 575.478515625 328 437 c 0
 328 367.525390625 363.392578125 306.0625 428.576171875 254.329101562 c 0
 485.03515625 207.952148438 532.505859375 181 574 181 c 0
 600.921875 181 645.8359375 189.259765625 711.440429688 204.399414062 c 2
 905 250.963867188 l 1
 905 100.188476562 l 1
 675.766601562 32.46875 477 0 305 0 c 2
 -3.69140625 0 l 6
 -21 0 -30 28.8388671875 -30 71 c 6
 -30 82 l 6
 -30 123.395507812 -20 150 -3.84765625 150 c 6
EndSplineSet
EndChar

StartChar: uniFEDA
Encoding: 65242 65242 229
GlifName: uniF_E_D_A_
Width: 1969
VWidth: 2551
GlyphClass: 2
Flags: HW
AnchorPoint: "Anchor-10" 948.836 1260.23 basechar 0
AnchorPoint: "Anchor-7" 850 -248 basechar 0
LayerCount: 2
Fore
SplineSet
1973.79589844 -1 m 2
 1943 -1 l 2
 1810.93921627 -1 1739.90371194 61.6811892429 1673 162.041992188 c 1
 1605.54731364 60.8576846548 1528.77823073 0 1347 0 c 6
 535 0 l 2
 254.313476562 0 117 139.833984375 117 427 c 2
 117 623 l 1
 262 623 l 1
 262 428 l 2
 262 246.036132812 356.834960938 150 538 150 c 2
 1352 150 l 2
 1512.97460938 150 1594 248.905273438 1594 433 c 2
 1594 1303 l 1
 1731 1303 l 1
 1731 430 l 2
 1731 255.645507812 1803 155 1947.38964844 150 c 2
 1973.95214844 149 l 2
 1990 148 2000.10449219 121.767578125 2000.10449219 81 c 2
 2000.10449219 70 l 2
 2000.10449219 27.228515625 1990 -1 1973.79589844 -1 c 2
860.8359375 589.23046875 m 0
 946.049804688 589.23046875 1051.8359375 597.137695312 1051.8359375 683.23046875 c 0
 1051.8359375 806.537109375 786.7265625 721.883789062 786.7265625 913.451171875 c 0
 786.7265625 1026.046875 871.442382812 1098.58300781 1039.765625 1098.58300781 c 0
 1062.77832031 1098.58300781 1088.19042969 1096.90917969 1110.8359375 1094.11230469 c 1
 1110.8359375 1017.69921875 l 1
 1090.87402344 1019.35742188 1072.18066406 1020.28027344 1052.36425781 1020.28027344 c 0
 968.57421875 1020.28027344 869.8359375 1001.95800781 869.8359375 914.23046875 c 0
 869.8359375 764.913085938 1131.8359375 858.634765625 1131.8359375 702.23046875 c 0
 1131.8359375 550.235351562 1002.04882812 504 846 504 c 0
 807.939453125 504 760.779296875 509.34765625 717.8359375 515.268554688 c 1
 717.8359375 599.522460938 l 1
 765.6953125 594.333984375 812.723632812 589.23046875 860.8359375 589.23046875 c 0
EndSplineSet
EndChar

StartChar: uniFEDB
Encoding: 65243 65243 230
GlifName: uniF_E_D_B_
Width: 938
VWidth: 2551
GlyphClass: 2
Flags: HW
AnchorPoint: "Anchor-10" 276 1373 basechar 0
AnchorPoint: "Anchor-7" 349 -236 basechar 0
LayerCount: 2
Fore
SplineSet
-3.84765625 150 m 6
 343 150 l 2
 509 150 608 195.900390625 608 299 c 0
 608 344.33984375 567.369140625 406.786132812 492.309570312 491.853515625 c 2
 178.37109375 856.782226562 l 2
 147.3046875 892.89453125 126 932.692382812 126 982.90625 c 0
 126.921875 1056.65234375 162.814453125 1103.41601562 234.661132812 1126.7421875 c 2
 839 1324.31445312 l 1
 839 1176.88378906 l 1
 279.346679688 994.259765625 l 1
 257.918945312 987.267578125 l 1
 272.642578125 970.201171875 l 1
 580.642578125 613.201171875 l 2
 694.266601562 481.501953125 744.021484375 390.0234375 744.021484375 298.68359375 c 0
 744.021484375 106.915039062 615 0 341 0 c 2
 -3.69140625 0 l 6
 -21 0 -30 28.8388671875 -30 71 c 6
 -30 82 l 6
 -30 123.395507812 -20 150 -3.84765625 150 c 6
EndSplineSet
EndChar

StartChar: uniFEDC
Encoding: 65244 65244 231
GlifName: uniF_E_D_C_
Width: 1106
VWidth: 2551
GlyphClass: 2
Flags: HW
AnchorPoint: "Anchor-7" 349 -236 basechar 0
AnchorPoint: "Anchor-10" 276 1373 basechar 0
LayerCount: 2
Fore
SplineSet
1109.36523438 0 m 6
 1096 0 l 2
 965 0 854.21875 63.8408203125 758.303710938 194.5859375 c 1
 756.48046875 197.3203125 l 1
 739.46875 222.838867188 l 1
 729.76953125 193.743164062 l 2
 687.311523438 66.3701171875 565 0 341 0 c 2
 -3.69140625 0 l 2
 -21 0 -30 28.8388671875 -30 71 c 2
 -30 82 l 2
 -30 123.395507812 -20 150 -3.84765625 150 c 2
 343 150 l 2
 509 150 608 195.900390625 608 299 c 0
 608 344.33984375 567.369140625 406.786132812 492.309570312 491.853515625 c 2
 178.37109375 856.782226562 l 2
 145.93359375 894.487304688 126 932.517578125 126 982.90625 c 0
 126.921875 1056.65234375 162.814453125 1103.41601562 234.661132812 1126.7421875 c 2
 839 1324.31445312 l 1
 839 1176.88378906 l 1
 279.346679688 994.259765625 l 1
 257.88671875 987.256835938 l 1
 272.65625 970.185546875 l 1
 843.65625 310.185546875 l 2
 932.938476562 206.987304688 1013 150 1086.88671875 150 c 2
 1109.52148438 150 l 6
 1126 150 1135.67382812 122.767578125 1135.67382812 82 c 6
 1135.67382812 71 l 6
 1135.67382812 28.228515625 1126 0 1109.36523438 0 c 6
EndSplineSet
EndChar

StartChar: uniFEDE
Encoding: 65246 65246 233
GlifName: uniF_E_D_E_
Width: 1387
VWidth: 2551
GlyphClass: 2
Flags: HW
AnchorPoint: "Anchor-10" 599 979.1 basechar 0
AnchorPoint: "Anchor-7" 659 -659 basechar 0
LayerCount: 2
Fore
SplineSet
1392 0 m 6
 1361 0 l 2
 1282.00000627 0 1239.64648438 21.2021484375 1199.76171875 55.388671875 c 2
 1175 76.61328125 l 1
 1175 44 l 2
 1175 -272.09765625 1014.47851562 -447 687 -447 c 2
 641 -447 l 2
 287.192382812 -447 115 -273.096679688 115 86 c 2
 115 412 l 1
 259 412 l 1
 259 87 l 2
 259 -165.047851562 389.903320312 -296 641 -296 c 2
 694 -296 l 2
 922.762695312 -296 1040 -170.330078125 1040 71 c 2
 1040 1303 l 1
 1175.984375 1303 l 1
 1175 367.0078125 l 2
 1175 224.114257812 1238.00000609 150 1354 150 c 2
 1392.15625 150 l 2
 1407.80957031 149.991210938 1418.30859375 122.767578125 1418.30859375 82 c 2
 1418.30859375 71 l 2
 1418.30859375 28.228515625 1407.80957031 -1.93611396791e-15 1392 0 c 6
EndSplineSet
EndChar

StartChar: uniFEDF
Encoding: 65247 65247 234
GlifName: uniF_E_D_F_
Width: 621
VWidth: 2551
GlyphClass: 2
Flags: HW
AnchorPoint: "Anchor-10" 382 1447 basechar 0
AnchorPoint: "Anchor-7" 229 -247 basechar 0
LayerCount: 2
Fore
SplineSet
-3.84765625 150 m 6
 117 150 l 2
 253 150 326 221.7421875 326 356 c 2
 326 1304 l 1
 463 1304 l 1
 463 357 l 2
 463 118.724609375 350 0 116 0 c 2
 -3.69140625 0 l 6
 -21 0 -30 28.8388671875 -30 71 c 6
 -30 82 l 6
 -30 123.395507812 -20 150 -3.84765625 150 c 6
EndSplineSet
EndChar

StartChar: uniFEE0
Encoding: 65248 65248 235
GlifName: uniF_E_E_0
Width: 679
VWidth: 2551
GlyphClass: 2
Flags: HW
AnchorPoint: "Anchor-10" 387 1446 basechar 0
AnchorPoint: "Anchor-7" 279 -240 basechar 0
LayerCount: 2
Fore
SplineSet
683.795898438 0 m 6
 659 0 l 2
 539 0 463.522460938 45.224609375 402.950195312 125.06640625 c 2
 390.670898438 141.251953125 l 1
 378.817382812 124.750976562 l 2
 316.584960938 38.115234375 213 0 110 0 c 2
 -3.69140625 0 l 2
 -21 0 -30 28.8388671875 -30 71 c 2
 -30 82 l 2
 -30 123.395507812 -20 150 -3.84765625 150 c 2
 108 150 l 2
 249 150 326 218.95703125 326 352 c 2
 326 1304 l 1
 462 1304 l 1
 462 352 l 2
 462 221.638671875 521 150 669 150 c 2
 683.952148438 150 l 6
 700 150 710.104492188 122.767578125 710.104492188 82 c 6
 710.104492188 71 l 6
 710.104492188 28.228515625 700 0 683.795898438 0 c 6
EndSplineSet
EndChar

StartChar: uniFEE2
Encoding: 65250 65250 237
GlifName: uniF_E_E_2
Width: 1387
VWidth: 2551
GlyphClass: 2
Flags: HW
AnchorPoint: "Anchor-7" 772 -293 basechar 0
AnchorPoint: "Anchor-10" 722 1121 basechar 0
LayerCount: 2
Fore
SplineSet
1389.21484375 0 m 6
 1357 0 l 2
 1256 0 1194.78710938 29.42578125 1140.60644531 83.6064453125 c 2
 1128.47167969 95.7412109375 l 1
 1118.06933594 82.091796875 l 2
 1063.89160156 11.0009765625 970.314453125 -20 866 -20 c 0
 634.912109375 -20 523 99.17578125 523 351 c 2
 523 539 l 1
 523 554 l 1
 508 554 l 2
 311.931640625 554 255 371.79296875 255 144 c 2
 255 -496 l 1
 115 -496 l 1
 115 145 l 2
 115 528.267578125 265.275390625 711 580 711 c 2
 855 711 l 2
 1081.63183594 711 1190 608.243164062 1190 396 c 2
 1190 352 l 2
 1190 222.76171875 1243 150 1353 150 c 2
 1389.37109375 150 l 6
 1406 150 1415.5234375 122.767578125 1415.5234375 82 c 6
 1415.5234375 71 l 6
 1415.5234375 28.228515625 1406 0 1389.21484375 0 c 6
840 569 m 2
 681 569 l 1
 666 569 l 1
 666 554 l 1
 666 353 l 2
 666 195.393554688 733.4765625 109 866 109 c 0
 987.74609375 109 1047 196.68359375 1047 353 c 2
 1047 395 l 2
 1047 510.24609375 972.864257812 569 840 569 c 2
EndSplineSet
EndChar

StartChar: uniFEE3
Encoding: 65251 65251 238
GlifName: uniF_E_E_3
Width: 1000
VWidth: 2551
GlyphClass: 2
Flags: HW
AnchorPoint: "Anchor-10" 546 1063 basechar 0
AnchorPoint: "Anchor-7" 528 -261 basechar 0
LayerCount: 2
Fore
SplineSet
-3.84765625 150 m 6
 95 150 l 2
 189 150 241.709960938 178.733398438 245.967773438 244.0234375 c 0
 248.995117188 290.439453125 249 320.044921875 249 360 c 0
 249 616.381835938 361.662109375 731 563 731 c 0
 780.537109375 731 885 617.568359375 885 358 c 0
 885 112.557617188 774.103515625 -14 563 -14 c 0
 447.0234375 -14 385.288085938 15.9248046875 322.606445312 78.6064453125 c 2
 311.086914062 90.1259765625 l 1
 300.555664062 77.697265625 l 2
 255.22265625 24.1953125 193 0 97 0 c 2
 -3.69140625 0 l 6
 -21 0 -30 28.8388671875 -30 71 c 6
 -30 82 l 6
 -30 123.395507812 -20 150 -3.84765625 150 c 6
565 130 m 0
 682.314453125 130 744 214.028320312 744 362 c 0
 744 504.415039062 684.615234375 583 564 583 c 0
 445.276367188 583 386 504.329101562 386 362 c 0
 386 214.028320312 447.684570312 130 565 130 c 0
EndSplineSet
EndChar

StartChar: uniFEE4
Encoding: 65252 65252 239
GlifName: uniF_E_E_4
Width: 1061
VWidth: 2551
GlyphClass: 2
Flags: HW
AnchorPoint: "Anchor-7" 528 -261 basechar 0
AnchorPoint: "Anchor-10" 546 1071 basechar 0
LayerCount: 2
Fore
SplineSet
1063.69140625 0 m 6
 1034 0 l 2
 952 0 869.377929688 28.5419921875 826.489257812 79.6435546875 c 2
 815.149414062 93.154296875 l 1
 803.635742188 79.791015625 l 2
 751.157226562 18.8779296875 668.986328125 -14 563 -14 c 0
 447.0234375 -14 385.288085938 15.9248046875 322.606445312 78.6064453125 c 2
 311.086914062 90.1259765625 l 1
 300.555664062 77.697265625 l 2
 255.22265625 24.1953125 193 0 97 0 c 2
 -3.69140625 0 l 2
 -21 0 -30 28.8388671875 -30 71 c 2
 -30 82 l 2
 -30 123.395507812 -20 150 -3.84765625 150 c 2
 95 150 l 2
 189 150 241.125976562 178.639648438 245.963867188 243.958007812 c 0
 249.00390625 290.569335938 249 319.99609375 249 360 c 0
 249 616.381835938 361.662109375 731 563 731 c 0
 780.537109375 731 885 617.568359375 885 358 c 0
 885 315.27734375 873.987304688 256.78125 873.987304688 235.728515625 c 0
 873.987304688 169.662109375 949 150 1032 150 c 2
 1063.84765625 150 l 6
 1080 150 1090 122.767578125 1090 82 c 6
 1090 71 l 6
 1090 28.228515625 1080 0 1063.69140625 0 c 6
565 130 m 0
 682.314453125 130 744 214.028320312 744 362 c 0
 744 504.415039062 684.615234375 583 564 583 c 0
 445.276367188 583 386 504.329101562 386 362 c 0
 386 214.028320312 447.684570312 130 565 130 c 0
EndSplineSet
EndChar

StartChar: uniFEEA
Encoding: 65258 65258 245
GlifName: uniF_E_E_A_
Width: 1060
VWidth: 2536
GlyphClass: 2
Flags: HW
AnchorPoint: "Anchor-10" 651 1145 basechar 0
AnchorPoint: "Anchor-7" 595 -237 basechar 0
LayerCount: 2
Fore
SplineSet
1019 0 m 2
 867 0 755.958984375 59.5791015625 705.809570312 177.85546875 c 2
 701.932617188 187 l 1
 692 187 l 1
 513 187 l 2
 216.759765625 187 115 303.817382812 115 442 c 0
 115 618.784179688 249.719726562 727.102539062 546.541015625 781.856445312 c 1
 611.360351562 792.186523438 l 1
 625.604492188 794.45703125 l 1
 623.89453125 808.778320312 l 1
 617.606445312 861.44140625 l 1
 745.942382812 881.747070312 l 1
 812.104492188 324.232421875 l 1
 812.154296875 323.814453125 l 1
 812.227539062 323.400390625 l 2
 835.510742188 191.107421875 912 150 1030 150 c 2
 1064.64648438 150 l 2
 1081 150 1090.79882812 122.767578125 1090.79882812 82 c 2
 1090.79882812 71 l 2
 1090.79882812 28.228515625 1081 0 1064.49023438 0 c 2
 1019 0 l 2
678.888671875 346.822265625 m 1
 643.888671875 632.822265625 l 1
 642.022460938 648.076171875 l 1
 626.817382812 645.840820312 l 1
 568.817382812 637.3125 l 2
 395.80859375 611.87109375 249 559.544921875 249 455 c 0
 249 358.328125 349.140625 330 498 330 c 2
 664 330 l 1
 680.947265625 330 l 1
 678.888671875 346.822265625 l 1
EndSplineSet
EndChar

StartChar: uniFEEB
Encoding: 65259 65259 246
GlifName: uniF_E_E_B_
Width: 1309
VWidth: 2551
GlyphClass: 2
Flags: HW
AnchorPoint: "Anchor-10" 640 1177 basechar 0
AnchorPoint: "Anchor-7" 559 -296 basechar 0
LayerCount: 2
Fore
SplineSet
-3.84765625 150 m 6
 291 150 l 1
 334.232421875 150 l 1
 300.290039062 176.776367188 l 2
 222.29296875 238.30859375 191 316.349609375 191 416 c 0
 191 619.903320312 334.783203125 761 510 761 c 0
 685.429079553 761 823.501953125 613.784179688 823.501953125 438.202148438 c 0
 823.501953125 298.850585938 708.584960938 197.819335938 644.581054688 154.4140625 c 2
 620.185546875 137.87109375 l 1
 647.918945312 127.88671875 l 2
 749.978515625 91.1455078125 841.055664062 84 901 84 c 0
 996.78125 84 1059 173.599609375 1059 244 c 0
 1059 374.335765891 848 602 676.391601562 732.546875 c 1
 755.21875 848.1015625 l 1
 1054.875 604.388671875 1194 406.223632812 1194 245 c 0
 1194 71.390625 1075.34570312 -56 916 -56 c 0
 775.625 -56 640.037109375 -20.8095703125 477.23828125 53.6416015625 c 2
 472.28125 55.908203125 l 1
 467.025390625 54.4638671875 l 2
 337.008789062 18.734375 217 0 90 0 c 2
 -3.69140625 0 l 6
 -21 0 -30 28.8388671875 -30 71 c 6
 -30 82 l 6
 -30 123.395507812 -20 150 -3.84765625 150 c 6
485.495117188 203.04296875 m 2
 595.288085938 246.268554688 697.830078125 336.159179688 697.830078125 450.6171875 c 0
 697.830078125 541.852539062 634.313476562 631 532 631 c 0
 407.387695312 631 323 539.870117188 323 414 c 0
 323 331.181640625 373.967773438 235.01953125 475.44921875 202.70703125 c 2
 480.53125 201.088867188 l 1
 485.495117188 203.04296875 l 2
EndSplineSet
EndChar

StartChar: uniFEEC
Encoding: 65260 65260 247
GlifName: uniF_E_E_C_
Width: 991
VWidth: 2551
GlyphClass: 2
Flags: HW
AnchorPoint: "Anchor-7" 576 -652 basechar 0
AnchorPoint: "Anchor-10" 558 1063 basechar 0
LayerCount: 2
Fore
SplineSet
996.0859375 0 m 6
 776 0 l 1
 747.159179688 0 l 1
 763.71875 -23.6123046875 l 2
 809.130859375 -88.3671875 832 -157.649414062 832 -229 c 0
 832 -374.100585938 742.956054688 -487 594 -487 c 0
 355.3984375 -487 234 -204.456054688 234 -15 c 2
 234 0 l 1
 219 0 l 1
 -3.69140625 0 l 2
 -21 0 -30 28.8388671875 -30 71 c 2
 -30 82 l 2
 -30 123.395507812 -20 150 -3.84765625 150 c 2
 219 150 l 1
 234 150 l 1
 234 165 l 1
 234 166.431640625 l 1
 256.4921875 461.392578125 333.16796875 742 574 742 c 0
 753.758789062 742 834 571.131835938 834 418 c 0
 834 334.830078125 808.399414062 237.639648438 765.51953125 173.3203125 c 2
 749.971679688 150 l 1
 778 150 l 1
 996.2421875 150 l 6
 1012 150 1022.39453125 122.767578125 1022.39453125 82 c 6
 1022.39453125 71 l 6
 1022.39453125 28.228515625 1012 0 996.0859375 0 c 6
708 -210 m 0
 708 -67.8173828125 624.15234375 0 482 0 c 2
 377 0 l 1
 362 0 l 1
 362 -15 l 2
 362 -145.841796875 439.129882812 -349 590 -349 c 0
 669.001953125 -349 708 -290.626953125 708 -210 c 0
707 392 m 0
 707 494.56640625 665.51171875 601 566 601 c 0
 418.525390625 601 379.400390625 328.762695312 362.086914062 168.612304688 c 2
 362 167.80859375 l 1
 362 167 l 1
 362 165 l 1
 362 150 l 1
 377 150 l 1
 379.063476562 150 l 1
 498.115234375 151 l 2
 636.876953125 152.067382812 707 237.715820312 707 392 c 0
EndSplineSet
EndChar

StartChar: uniFEEE
Encoding: 65262 65262 249
GlifName: uniF_E_E_E_
Width: 916
VWidth: 2551
GlyphClass: 2
Flags: HW
AnchorPoint: "Anchor-7" 394 -634 basechar 0
AnchorPoint: "Anchor-10" 444 1039 basechar 0
LayerCount: 2
Fore
SplineSet
920.270507812 0 m 6
 780 0 l 1
 765 0 l 1
 765 -15 l 2
 765 -293.032226562 577.118164062 -467 202 -467 c 2
 143 -467 l 1
 143 -321 l 1
 196 -321 l 2
 468.111328125 -321 623.938476562 -215.447265625 625 -17 c 2
 625 -15 l 1
 625 0 l 1
 610 0 l 1
 448 0 l 2
 222.75 0 114.993164062 105.387695312 114.993164062 324.083007812 c 0
 114.993164062 540.54296875 224.852539062 695 447 695 c 0
 649.750976562 695 765 559.18359375 765 333 c 2
 765 165 l 1
 765 150 l 1
 780 150 l 1
 920.426757812 150 l 6
 937 150 946.579101562 122.767578125 946.579101562 82 c 6
 946.579101562 71 l 6
 946.579101562 28.228515625 937 0 920.270507812 0 c 6
252 328 m 0
 252 211.799804688 321.04296875 150 447 150 c 2
 611 150 l 1
 626 150 l 1
 626 165 l 1
 626 334 l 2
 626 476.579101562 554.110351562 553 443 553 c 0
 316.201171875 553 252 462.826171875 252 328 c 0
EndSplineSet
EndChar

StartChar: uniFEFB
Encoding: 65275 65275 262
GlifName: uniF_E_F_B_
Width: 1145
VWidth: 2551
GlyphClass: 3
Flags: HW
AnchorPoint: "Anchor-9" 248 1428 baselig 1
AnchorPoint: "Anchor-9" 910 1448 baselig 0
AnchorPoint: "Anchor-6" 848 -223 baselig 0
AnchorPoint: "Anchor-6" 243 -230 baselig 1
LayerCount: 2
Fore
SplineSet
174 1255 m 1
 310 1255 l 1
 310 281 l 1
 174 281 l 1
 174 1255 l 1
987 377 m 2
 987 122.77734375 866.634765625 0 620 0 c 2
 173 0 l 1
 173 150 l 1
 627 150 l 2
 773.239257812 150 850 236.076171875 850 395 c 2
 850 1304 l 1
 987 1304 l 1
 987 377 l 2
EndSplineSet
PairPos2: "'kern' Horizontal Kerning lookup 15-6" uni063A dx=-60 dy=0 dh=-60 dv=0 dx=0 dy=0 dh=0 dv=0
PairPos2: "'kern' Horizontal Kerning lookup 15-6" uni0639 dx=-60 dy=0 dh=-60 dv=0 dx=0 dy=0 dh=0 dv=0
LCarets2: 1 0
Ligature2: "'rlig' Required Ligatures in Arabic lookup 16 subtable" uniFEDF uniFE8E
EndChar

StartChar: uniFEFC
Encoding: 65276 65276 263
GlifName: uniF_E_F_C_
Width: 1203
VWidth: 2551
GlyphClass: 3
Flags: HW
AnchorPoint: "Anchor-6" 848 -223 baselig 0
AnchorPoint: "Anchor-9" 910 1448 baselig 0
AnchorPoint: "Anchor-6" 243 -230 baselig 1
AnchorPoint: "Anchor-9" 248 1428 baselig 1
LayerCount: 2
Fore
SplineSet
1206.21777344 0 m 2
 1183 0 l 2
 1038.39690602 0 978.754988181 64.457902438 910.890625 152.322265625 c 5
 859.349912557 49.235432477 741.92547855 0 637 0 c 6
 173 0 l 1
 173 150 l 1
 620 150 l 2
 773.229492188 150 850 255.140625 850 449 c 2
 850 1305 l 1
 986 1305 l 1
 986 448 l 2
 986 258.564453125 1024 150 1185 150 c 2
 1206.37402344 150 l 2
 1223 150 1232.52636719 122.767578125 1232.52636719 82 c 2
 1232.52636719 71 l 2
 1232.52636719 28.228515625 1223 0 1206.21777344 0 c 2
174 1255 m 1
 310 1255 l 1
 310 281 l 1
 174 281 l 1
 174 1255 l 1
EndSplineSet
PairPos2: "'kern' Horizontal Kerning lookup 15-6" uni063A dx=-60 dy=0 dh=-60 dv=0 dx=0 dy=0 dh=0 dv=0
PairPos2: "'kern' Horizontal Kerning lookup 15-6" uni0639 dx=-60 dy=0 dh=-60 dv=0 dx=0 dy=0 dh=0 dv=0
LCarets2: 1 0
Ligature2: "'rlig' Required Ligatures in Arabic lookup 16 subtable" uniFEE0 uniFE8E
EndChar

StartChar: arabic_dot
Encoding: 65536 -1 264
GlifName: arabic_dot
Width: 204
VWidth: 2629
GlyphClass: 2
Flags: HW
LayerCount: 2
Fore
SplineSet
-30.8578643763 89 m 1
 102 221.857864376 l 1
 234.857864376 89 l 1
 102 -43.8578643763 l 1
 -30.8578643763 89 l 1
EndSplineSet
EndChar

StartChar: arabic_2dots
Encoding: 65537 -1 265
GlifName: arabic_2dots
Width: 527
VWidth: 2629
GlyphClass: 2
Flags: HW
LayerCount: 2
Fore
SplineSet
310.093116534 89 m 1
 439.02468079 218.833183586 l 1
 568.857864376 89 l 1
 439.02468079 -40.8331835863 l 1
 310.093116534 89 l 1
-41.8578643763 89 m 1
 87.9753192101 218.833183586 l 1
 216.906883466 89 l 1
 87.9753192101 -40.8331835863 l 1
 -41.8578643763 89 l 1
EndSplineSet
EndChar

StartChar: arabic_3dots
Encoding: 65538 -1 266
GlifName: arabic_3dots
Width: 527
VWidth: 2629
GlyphClass: 2
Flags: HW
LayerCount: 2
Fore
SplineSet
142.917907692 344.514266994 m 1
 263.964555898 464.683347542 l 1
 384.133542854 344.514360585 l 1
 263.964462307 223.46771238 l 1
 142.917907692 344.514266994 l 1
314.417907692 98.4857330057 m 1
 435.490234375 219.558059688 l 1
 556.562561058 98.4857330057 l 1
 435.490234375 -21.7088398539 l 1
 314.417907692 98.4857330057 l 1
-29.562561058 98.4857330057 m 1
 91.509765625 219.558059688 l 1
 212.582092308 98.4857330057 l 1
 91.509765625 -21.7088398539 l 1
 -29.562561058 98.4857330057 l 1
EndSplineSet
EndChar

StartChar: arabic_3dots_a
Encoding: 65539 -1 267
GlifName: arabic_3dots_a
Width: 527
VWidth: 2629
GlyphClass: 2
Flags: HW
LayerCount: 2
Fore
SplineSet
142.917907692 -141.514266994 m 1
 263.964462307 -20.4677123794 l 1
 384.133542854 -141.514360585 l 1
 263.964555898 -261.683347542 l 1
 142.917907692 -141.514266994 l 1
314.417907692 104.514266994 m 1
 435.490234375 224.708839854 l 1
 556.562561058 104.514266994 l 1
 435.490234375 -16.5580596888 l 1
 314.417907692 104.514266994 l 1
-29.562561058 104.514266994 m 1
 91.509765625 224.708839854 l 1
 212.582092308 104.514266994 l 1
 91.509765625 -16.5580596888 l 1
 -29.562561058 104.514266994 l 1
EndSplineSet
EndChar

StartChar: uni066E.fina
Encoding: 65540 -1 268
GlifName: uni066E_.fina
Width: 2016
VWidth: 2551
GlyphClass: 2
Flags: HW
AnchorPoint: "Anchor-10" 680 1222 basechar 0
AnchorPoint: "Anchor-7" 680 -233 basechar 0
LayerCount: 2
Fore
SplineSet
2020.36523438 0 m 6
 2001 0 l 2
 1856 0 1780.8046875 42.5244140625 1725.64941406 129.0625 c 2
 1713.77441406 147.692382812 l 1
 1700.83984375 129.782226562 l 2
 1639.0234375 44.1884765625 1559.15039062 0 1357 0 c 2
 532 0 l 2
 251.313476562 0 115 138.79296875 115 427 c 2
 115 613 l 1
 260 613 l 1
 260 428 l 2
 260 246.0625 354.794921875 150 535 150 c 2
 1359 150 l 2
 1545.98925781 150 1637 207.889648438 1637 360 c 2
 1637 603 l 1
 1778 603 l 1
 1778 360 l 2
 1778 223.25 1841 150 2000 150 c 2
 2020.52148438 150 l 6
 2037 150 2046.67382812 122.767578125 2046.67382812 82 c 6
 2046.67382812 71 l 6
 2046.67382812 28.228515625 2037 0 2020.36523438 0 c 6
EndSplineSet
EndChar

StartChar: uni06A1.fina
Encoding: 65543 -1 269
GlifName: uni06A_1.fina
Width: 2044
VWidth: 2551
GlyphClass: 2
Flags: HW
AnchorPoint: "Anchor-10" 475 1348 basechar 0
AnchorPoint: "Anchor-7" 600 -285 basechar 0
LayerCount: 2
Fore
SplineSet
2048.79589844 0 m 6
 1914 0 l 2
 1805 0 1670.08691406 22.7880859375 1565.1015625 79.212890625 c 2
 1558.03710938 83.0087890625 l 1
 1550.95703125 79.244140625 l 2
 1446.76660156 23.8388671875 1329.54589844 0 1201 0 c 2
 534 0 l 2
 253.313476562 0 117 138.79296875 117 427 c 2
 117 613 l 1
 262 613 l 1
 262 428 l 2
 262 246.036132812 356.834960938 150 538 150 c 2
 1314 150 l 1
 1350.01464844 150 l 1
 1324.64746094 175.565429688 l 2
 1265.17871094 235.499023438 1223 309.678710938 1223 416 c 0
 1223 607.51953125 1371.68945312 756 1561 756 c 0
 1749.16796875 756 1898 610.645507812 1898 417 c 0
 1898 309.8125 1855.80957031 234.198242188 1797.37792969 175.590820312 c 2
 1771.86328125 150 l 1
 1808 150 l 1
 2048.95214844 150 l 6
 2065 150 2075.10449219 122.767578125 2075.10449219 82 c 6
 2075.10449219 71 l 6
 2075.10449219 28.228515625 2065 0 2048.79589844 0 c 6
1760 415 m 0
 1760 522.61328125 1674.81054688 611 1560 611 c 0
 1445.96972656 611 1359 529.053710938 1359 415 c 0
 1359 306.375 1451.81933594 219 1560 219 c 0
 1667.96972656 219 1760 305.928710938 1760 415 c 0
EndSplineSet
EndChar

StartChar: uni06A1.init
Encoding: 65544 -1 270
GlifName: uni06A_1.init
Width: 898
VWidth: 2551
GlyphClass: 2
Flags: HW
AnchorPoint: "Anchor-10" 467 1375 basechar 0
AnchorPoint: "Anchor-7" 502 -222 basechar 0
LayerCount: 2
Fore
SplineSet
-4.84765625 150 m 6
 365 150 l 2
 586 150 650 202.7734375 650 313 c 2
 650 338 l 1
 650 354.453125 l 1
 633.6171875 352.936523438 l 2
 579.735351562 347.947265625 529.782226562 344 482 344 c 0
 248.889648438 344 141 422.84375 141 611 c 0
 141 809.747070312 255.450195312 950 466 950 c 0
 679.344726562 950 783 829.905273438 783 639 c 2
 783 320 l 2
 783 105.365234375 669 0 363 0 c 2
 -4.69140625 0 l 6
 -22 0 -31 28.8388671875 -31 71 c 6
 -31 82 l 6
 -31 123.395507812 -21 150 -4.84765625 150 c 6
468 809 m 0
 346.20703125 809 276 738.952148438 276 622 c 0
 276 509.029296875 357.741210938 488 490 488 c 0
 539.221679688 488 588.703125 492.250976562 633.951171875 498 c 0
 634.951171875 498 634 498 635 498 c 2
 650 498 l 1
 650 513 l 1
 650 642 l 2
 650 742.01171875 585.771484375 809 468 809 c 0
EndSplineSet
EndChar

StartChar: uni06A1.medi
Encoding: 65545 -1 271
GlifName: uni06A_1.medi
Width: 1022
VWidth: 2551
GlyphClass: 2
Flags: HW
AnchorPoint: "Anchor-10" 535 1159 basechar 0
AnchorPoint: "Anchor-7" 505 -222 basechar 0
LayerCount: 2
Fore
SplineSet
1025.79589844 0 m 6
 891 0 l 2
 782 0 647.086914062 22.7880859375 542.1015625 79.212890625 c 2
 535.037109375 83.0087890625 l 1
 527.95703125 79.244140625 l 2
 423.77734375 23.84375 306 0 178 0 c 2
 -4.69140625 0 l 2
 -22 0 -31 28.8388671875 -31 71 c 2
 -31 82 l 2
 -31 123.395507812 -21 150 -4.84765625 150 c 2
 291 150 l 1
 327.014648438 150 l 1
 301.647460938 175.565429688 l 2
 242.178710938 235.499023438 200 309.678710938 200 416 c 0
 200 607.51953125 348.689453125 756 538 756 c 0
 726.16796875 756 875 610.64453125 875 417 c 0
 875 309.8125 832.809570312 234.19921875 774.376953125 175.590820312 c 2
 748.864257812 150 l 1
 785 150 l 1
 1025.95214844 150 l 6
 1042 150 1052.10449219 122.767578125 1052.10449219 82 c 6
 1052.10449219 71 l 6
 1052.10449219 28.228515625 1042 0 1025.79589844 0 c 6
737 415 m 0
 737 522.612304688 651.810546875 611 537 611 c 0
 422.969726562 611 336 529.053710938 336 415 c 0
 336 306.375 428.819335938 219 537 219 c 0
 644.969726562 219 737 305.928710938 737 415 c 0
EndSplineSet
EndChar

StartChar: uni066F.fina
Encoding: 65546 -1 272
GlifName: uni066F_.fina
Width: 1466
VWidth: 2551
GlyphClass: 2
Flags: HW
AnchorPoint: "Anchor-10" 398 1035 basechar 0
AnchorPoint: "Anchor-7" 515 -715 basechar 0
LayerCount: 2
Fore
SplineSet
1471.21972656 0 m 6
 1331 0 l 1
 1316 0 l 1
 1316 -15 l 1
 1316 -81 l 2
 1316 -358.44921875 1059.62011719 -449 744 -449 c 2
 693 -449 l 2
 305.138671875 -449 115 -274.026367188 115 86 c 2
 115 412 l 1
 259 412 l 1
 259 87 l 2
 259 -169.487304688 409.340820312 -300 693 -300 c 2
 744 -300 l 2
 995.415039062 -300 1175.98144531 -237.228515625 1176.00097656 -81 c 2
 1176 -15 l 1
 1176 0 l 1
 1161 0 l 1
 999 0 l 2
 773.750976562 0 665.993164062 105.387695312 665.993164062 324.083007812 c 0
 665.993164062 540.54296875 775.852539062 695 998 695 c 0
 1200.75097656 695 1316 559.18359375 1316 333 c 2
 1316 165 l 1
 1316 150 l 1
 1331 150 l 1
 1471.37597656 150 l 6
 1488 150 1497.52832031 122.767578125 1497.52832031 82 c 6
 1497.52832031 71 l 6
 1497.52832031 28.228515625 1488 0 1471.21972656 0 c 6
803 328 m 0
 803 211.799804688 872.04296875 150 998 150 c 2
 1162 150 l 1
 1177 150 l 1
 1177 165 l 1
 1177 334 l 2
 1177 476.579101562 1105.11035156 553 994 553 c 0
 867.201171875 553 803 462.826171875 803 328 c 0
EndSplineSet
EndChar

StartChar: arabic_gaf_bar
Encoding: 65550 -1 273
GlifName: arabic_gaf_bar
Width: 657
VWidth: 2389
GlyphClass: 2
Flags: HW
LayerCount: 2
Fore
SplineSet
588 1747 m 5
 17 1556 l 1
 17 1656 l 1
 588 1847 l 5
 588 1747 l 5
EndSplineSet
EndChar

StartChar: guillemotleft
Encoding: 171 171 283
GlifName: guillemotleft
Width: 957
VWidth: 2046
Flags: HW
LayerCount: 2
Fore
SplineSet
424.97265625 877 m 1
 346.286132812 741.162109375 265 598.752929688 265 442 c 0
 265 283.393554688 346.280273438 140.866210938 424.97265625 5 c 1
 307.041015625 5 l 1
 207.578125 155.178710938 135 296.427734375 135 442 c 0
 135 626.303710938 225.3046875 745.43359375 306.393554688 877 c 1
 424.97265625 877 l 1
800.7890625 877 m 1
 727.280273438 753.466796875 641 629.826171875 641 442 c 0
 641 283.393554688 722.280273438 140.866210938 800.97265625 5 c 1
 683.018554688 5 l 1
 599.116210938 130.37109375 511 251.21484375 511 442 c 0
 511 626.303710938 601.3046875 745.43359375 682.393554688 877 c 1
 800.7890625 877 l 1
EndSplineSet
EndChar

StartChar: guillemotright
Encoding: 187 187 284
GlifName: guillemotright
Width: 957
VWidth: 2046
Flags: HW
LayerCount: 2
Fore
SplineSet
532.028320312 877 m 1
 650.5859375 877 l 1
 745.943359375 720.79296875 822 588.993164062 822 441 c 0
 822 296.444335938 748.520507812 153.818359375 649.958984375 5 c 1
 532.030273438 5 l 1
 611.487304688 142.114257812 692 282.567382812 692 441 c 0
 692 598.913085938 610.038085938 742.358398438 532.028320312 877 c 1
156.028320312 877 m 1
 274.5859375 877 l 1
 369.943359375 720.79296875 446 588.993164062 446 441 c 0
 446 296.444335938 372.520507812 153.818359375 273.958984375 5 c 1
 156.030273438 5 l 1
 235.487304688 142.114257812 316 282.567382812 316 441 c 0
 316 598.913085938 234.038085938 742.358398438 156.028320312 877 c 1
EndSplineSet
EndChar

StartChar: NameMe.302
Encoding: 65562 -1 293
GlifName: N_ameM_e.302
Width: 599
VWidth: 2551
Flags: HW
AnchorPoint: "Anchor-10" 313 1258 basechar 0
AnchorPoint: "Anchor-7" 231 -310 basechar 0
LayerCount: 2
Fore
SplineSet
603.795898438 0 m 2
 569 0 l 2
 449.028945487 0 376.092781154 61.45618993 306.890625 151.322265625 c 5
 255.717617467 48.9708808799 137.497430907 0 30 0 c 2
 -3.69140625 0 l 2
 -21 0 -30 28.8388671875 -30 71 c 2
 -30 82 l 2
 -30 123.395507812 -20 150 -3.84765625 150 c 2
 28 150 l 2
 173 150 246 245.649414062 246 422 c 2
 246 1094 l 1
 382 1094 l 1
 382 421 l 2
 382 279.279296875 434 150 579 150 c 2
 603.952148438 150 l 2
 620 150 630.104492188 122.767578125 630.104492188 82 c 2
 630.104492188 71 l 2
 630.104492188 28.228515625 620 0 603.795898438 0 c 2
EndSplineSet
EndChar

StartChar: NameMe.303
Encoding: 65563 -1 294
GlifName: N_ameM_e.303
Width: 570
VWidth: 2551
Flags: HW
LayerCount: 2
Fore
SplineSet
-3.84765625 150 m 6
 67 150 l 2
 203 150 276 221.7421875 276 356 c 2
 276 1284 l 1
 413 1284 l 1
 413 352 l 2
 413 113.9140625 300 0 66 0 c 2
 -3.69140625 0 l 6
 -21 0 -30 28.8388671875 -30 71 c 6
 -30 82 l 6
 -30 123.395507812 -20 150 -3.84765625 150 c 6
EndSplineSet
EndChar

StartChar: NameMe.65564
Encoding: 65564 -1 297
GlifName: N_ameM_e.65564
Width: 516
VWidth: 2551
Flags: HW
AnchorPoint: "Anchor-10" 247 1296 basechar 0
AnchorPoint: "Anchor-7" 273 -262 basechar 0
LayerCount: 2
Fore
SplineSet
521.0859375 0 m 6
 477 0 l 2
 268 0 166 115.401367188 166 360 c 2
 166 1103 l 1
 305 1103 l 1
 305 359 l 2
 305 225.21875 364 150 480 150 c 2
 521.2421875 150 l 6
 537 150 547.39453125 122.767578125 547.39453125 82 c 6
 547.39453125 71 l 6
 547.39453125 28.228515625 537 0 521.0859375 0 c 6
EndSplineSet
EndChar

StartChar: NameMe.65565
Encoding: 65565 -1 298
GlifName: N_ameM_e.65565
Width: 867
VWidth: 1530
Flags: HW
LayerCount: 2
Fore
SplineSet
290.220331417 -142.347654851 m 1
 316.413611481 -151.974947389 349.920418563 -155.5 395 -155.5 c 2
 447 -155.5 l 2
 589.664444203 -155.5 669.5 -126.345696175 669.5 -60 c 2
 669.5 -54 l 2
 669.5 -21.3926779146 643.543184639 -5.5 604 -5.5 c 2
 512 -5.5 l 2
 447.354611121 -5.5 417.5 23.7177292826 417.5 86 c 2
 417.5 124 l 2
 417.5 208.888497977 459.910549694 265.77811863 545.508073839 295.931791909 c 0
 575.504158867 306.575564016 612.692573083 312.5 655 312.5 c 2
 762.564376492 312.5 l 1
 763.435066147 211.5 l 1
 631 211.5 l 2
 556.53611759 211.5 512.611752707 183.772910392 511.5 127.073522346 c 2
 511.5 97 l 1
 511.5 89.5 l 1
 519 89.5 l 1
 605 89.5 l 2
 713.825776637 89.5 763.5 48.1179819118 763.5 -34 c 2
 763.5 -50 l 2
 763.5 -183.927659235 660.010568806 -253.5 442 -253.5 c 2
 394 -253.5 l 2
 340.317711532 -253.5 297.904229544 -248.110150684 266.93111152 -238.954789242 c 1
 290.220331417 -142.347654851 l 1
EndSplineSet
EndChar

StartChar: uni060D
Encoding: 1549 1549 299
Width: 828
VWidth: 4021
Flags: HW
LayerCount: 2
Fore
SplineSet
620.515625 1423.47558594 m 1
 734.765625 1389.12011719 l 1
 188.484375 -207.475585938 l 1
 74.234375 -173.120117188 l 1
 620.515625 1423.47558594 l 1
EndSplineSet
EndChar

StartChar: NameMe.65541
Encoding: 65541 -1 300
Width: 677
VWidth: 2551
Flags: HW
AnchorPoint: "Anchor-10" 400 1203 basechar 0
AnchorPoint: "Anchor-7" 407 -159 basechar 0
LayerCount: 2
Fore
SplineSet
-3.84765625 150 m 6
 198 150 l 2
 338 150 415 202.107421875 415 358 c 2
 415 637 l 1
 559 637 l 1
 559 357 l 2
 559 116.1875 442 0 197 0 c 2
 -3.69140625 0 l 6
 -21 0 -30 28.8388671875 -30 71 c 6
 -30 82 l 6
 -30 123.395507812 -20 150 -3.84765625 150 c 6
EndSplineSet
EndChar

StartChar: NameMe.65542
Encoding: 65542 -1 301
Width: 807
VWidth: 2551
Flags: HW
AnchorPoint: "Anchor-10" 360 1109 basechar 0
AnchorPoint: "Anchor-7" 339 -164 basechar 0
LayerCount: 2
Fore
SplineSet
810.365234375 0 m 6
 791 0 l 2
 648 0 572.743164062 42.47265625 515.522460938 129.256835938 c 2
 503.940429688 146.82421875 l 1
 491.110351562 130.145507812 l 2
 424.376953125 43.392578125 331 0 166 0 c 2
 -3.69140625 0 l 2
 -21 0 -30 28.8388671875 -30 71 c 2
 -30 82 l 2
 -30 123.395507812 -20 150 -3.84765625 150 c 2
 171 150 l 2
 346 150 427 221.081054688 427 360 c 2
 427 603 l 1
 568 603 l 1
 568 360 l 2
 568 223.25 631 150 790 150 c 2
 810.521484375 150 l 6
 827 150 836.673828125 122.767578125 836.673828125 82 c 6
 836.673828125 71 l 6
 836.673828125 28.228515625 827 0 810.365234375 0 c 6
EndSplineSet
EndChar

StartChar: uniFBFD.compact
Encoding: 65575 -1 321
Width: 1381
VWidth: 2551
Flags: HW
AnchorPoint: "Anchor-7" 721.902 -665.086 basechar 0
AnchorPoint: "Anchor-10" 681.6 638.22 basechar 0
LayerCount: 2
Fore
SplineSet
1385.02734375 0 m 2
 1332 0 l 1
 1317 0 l 1
 1317 -15 l 1
 1317 -94 l 2
 1317 -320.479492188 1145.13085938 -451 783 -451 c 2
 687 -451 l 2
 300.326171875 -451 115 -274.229492188 115 84 c 2
 115 409.9140625 l 1
 260 409.0859375 l 1
 260 85 l 2
 260 -170.262695312 406.147460938 -301 687 -301 c 2
 783 -301 l 2
 962.99609375 -301 1174 -272.540039062 1174 -87 c 2
 1174 -15 l 1
 1174 0 l 1
 1159 0 l 1
 906 0 l 2
 884.013671875 0 862.1640625 19.0791015625 846.489257812 76.880859375 c 0
 835.975585938 116.1328125 835.625 142.854492188 838.576171875 150 c 1
 1385.18359375 150 l 2
 1401 150 1411.3359375 122.767578125 1411.3359375 82 c 2
 1411.3359375 71 l 2
 1411.3359375 28.228515625 1401 0 1385.02734375 0 c 2
EndSplineSet
EndChar

StartChar: uniFECC.compact
Encoding: 65579 -1 324
Width: 1113
VWidth: 2950
Flags: HW
AnchorPoint: "Anchor-7" 585 -252 basechar 0
AnchorPoint: "Anchor-10" 608 1086 basechar 0
LayerCount: 2
Fore
SplineSet
1116.99707031 0 m 6
 1009 0 l 2
 911 0 772.515625 14.6904296875 624.423828125 99.0341796875 c 2
 617.124023438 103.19140625 l 1
 609.764648438 99.1396484375 l 2
 454.517578125 13.6552734375 327 0 146 0 c 2
 -3.69140625 0 l 2
 -21 0 -30 28.8388671875 -30 71 c 2
 -30 82 l 2
 -30 123.395507812 -20 150 -3.84765625 150 c 2
 145 150 l 2
 283 150 362.4296875 153.045898438 476.231445312 170.166992188 c 2
 518.438476562 176.516601562 l 1
 481.5390625 197.967773438 l 2
 478.71875 199.607421875 168.9921875 386.53515625 168.9921875 488.420898438 c 0
 168.9921875 654.138671875 354.888671875 722 619 722 c 0
 883.078125 722 1068.0078125 654.171875 1068.0078125 488.420898438 c 0
 1068.0078125 386.514648438 759.244140625 199.590820312 756.443359375 197.958007812 c 2
 722.051757812 177.90234375 l 1
 761.126953125 170.27734375 l 2
 844.36328125 154.036132812 919 150 1015 150 c 2
 1117.15332031 150 l 6
 1133 150 1143.30566406 122.767578125 1143.30566406 82 c 6
 1143.30566406 71 l 6
 1143.30566406 28.228515625 1133 0 1116.99707031 0 c 6
625.408203125 268.95703125 m 1
 625.408203125 268.95703125 918.0234375 423.4453125 918.0234375 487.098632812 c 0
 918.0234375 557.420898438 773.5859375 582 617 582 c 0
 463.391601562 582 317.9765625 557.44140625 317.9765625 487.098632812 c 0
 317.9765625 423.240234375 610.591796875 268.95703125 610.591796875 268.95703125 c 1
 618 264.749023438 l 1
 625.408203125 268.95703125 l 1
EndSplineSet
EndChar

